<svg width="500" height="200" viewBox="0 0 500 200" fill="none" xmlns="http://www.w3.org/2000/svg">
<g clip-path="url(#clip0_21_20)">
<g filter="url(#filter0_d_21_20)">
<path d="M279.5 145C279.5 145 286 155.112 286 158.63C286 162.148 283.09 165 279.5 165C275.91 165 273 162.148 273 158.63C273 155.112 279.5 145 279.5 145Z" fill="white"/>
<path d="M280.341 144.459L279.5 145L280.342 144.46L280.343 144.462C280.344 144.463 280.345 144.465 280.347 144.468C280.35 144.473 280.355 144.48 280.361 144.49C280.374 144.51 280.393 144.54 280.417 144.578C280.466 144.655 280.537 144.767 280.627 144.91C280.807 145.197 281.063 145.61 281.37 146.115C281.985 147.126 282.805 148.515 283.627 150.016C284.447 151.513 285.277 153.14 285.905 154.627C286.514 156.069 287 157.528 287 158.63C287 162.591 283.831 165.794 279.885 165.99L279.5 166C275.377 166 272 162.719 272 158.63C272 157.528 272.486 156.069 273.095 154.627C273.723 153.14 274.553 151.513 275.373 150.016C276.195 148.515 277.015 147.126 277.63 146.115C277.937 145.609 278.194 145.197 278.374 144.91C278.464 144.767 278.534 144.655 278.583 144.578C278.607 144.54 278.626 144.51 278.639 144.49C278.645 144.48 278.65 144.473 278.653 144.468C278.655 144.465 278.656 144.463 278.657 144.462L278.658 144.46H278.659V144.459L279.5 143.15L280.341 144.459Z" stroke="#8BFF00" stroke-width="2"/>
</g>
<path d="M279.5 145C279.5 145 286 155.112 286 158.63C286 162.148 283.09 165 279.5 165C275.91 165 273 162.148 273 158.63C273 155.112 279.5 145 279.5 145Z" fill="black"/>
<path d="M274.056 158.576V158.582C274.057 158.614 274.057 158.594 274.057 158.602L274.06 158.639L274.066 158.714C274.07 158.763 274.074 158.812 274.079 158.862C274.08 158.874 274.08 158.885 274.082 158.899L274.088 158.941C274.092 158.969 274.096 158.997 274.1 159.025C274.109 159.08 274.117 159.136 274.126 159.191C274.145 159.298 274.171 159.399 274.195 159.501C274.22 159.602 274.254 159.7 274.284 159.797C274.298 159.845 274.319 159.892 274.336 159.939C274.355 159.985 274.373 160.032 274.391 160.078C274.546 160.443 274.744 160.764 274.954 161.036C275.008 161.104 275.058 161.171 275.115 161.231C275.17 161.292 275.222 161.353 275.277 161.409C275.334 161.463 275.389 161.516 275.442 161.567C275.455 161.58 275.469 161.593 275.482 161.605C275.496 161.617 275.51 161.629 275.523 161.64C275.551 161.663 275.578 161.686 275.605 161.708C275.71 161.799 275.817 161.874 275.915 161.943C275.963 161.979 276.014 162.007 276.06 162.037C276.107 162.066 276.152 162.093 276.194 162.118C276.368 162.214 276.507 162.283 276.606 162.321C276.655 162.342 276.693 162.357 276.718 162.367C276.743 162.377 276.756 162.382 276.756 162.382C276.756 162.382 276.717 162.344 276.643 162.272C276.624 162.254 276.604 162.235 276.581 162.213C276.569 162.202 276.558 162.191 276.545 162.179C276.533 162.167 276.521 162.154 276.509 162.141C276.483 162.114 276.456 162.086 276.427 162.055C276.398 162.025 276.366 161.995 276.336 161.959C276.305 161.924 276.274 161.886 276.24 161.848C276.206 161.809 276.169 161.771 276.136 161.726C276.07 161.638 275.992 161.549 275.922 161.443C275.904 161.417 275.886 161.391 275.867 161.365C275.858 161.352 275.848 161.339 275.839 161.326C275.83 161.312 275.821 161.298 275.812 161.284C275.777 161.228 275.741 161.171 275.704 161.112C275.637 160.99 275.562 160.867 275.5 160.73C275.37 160.462 275.258 160.161 275.178 159.84C275.169 159.8 275.16 159.759 275.151 159.718C275.142 159.677 275.13 159.637 275.125 159.595C275.118 159.553 275.111 159.511 275.105 159.469C275.101 159.448 275.097 159.427 275.094 159.406C275.09 159.385 275.087 159.364 275.085 159.342C275.081 159.3 275.077 159.257 275.073 159.213L275.066 159.149C275.063 159.127 275.061 159.105 275.061 159.085C275.059 159.044 275.058 159.003 275.056 158.961L275.053 158.899L275.052 158.868C275.051 158.857 275.052 158.844 275.052 158.832C275.053 158.782 275.053 158.733 275.054 158.683L275.055 158.609L275.056 158.572C275.056 158.577 275.056 158.553 275.056 158.582L275.056 158.579L275.057 158.572L275.059 158.558L275.064 158.504L275.073 158.443C275.076 158.423 275.078 158.403 275.082 158.382L275.095 158.318C275.11 158.233 275.136 158.141 275.156 158.052C275.169 158.006 275.182 157.961 275.195 157.915C275.208 157.869 275.22 157.823 275.236 157.776C275.351 157.404 275.492 157.02 275.645 156.639C275.717 156.447 275.801 156.257 275.878 156.066C275.959 155.876 276.039 155.686 276.119 155.497C276.201 155.309 276.282 155.122 276.363 154.938C276.402 154.845 276.444 154.753 276.484 154.662C276.524 154.571 276.564 154.48 276.604 154.39C276.644 154.3 276.681 154.21 276.721 154.122C276.761 154.034 276.8 153.946 276.838 153.859C276.914 153.685 276.989 153.515 277.061 153.349C277.134 153.184 277.205 153.023 277.271 152.866C277.304 152.787 277.337 152.71 277.369 152.634C277.402 152.558 277.436 152.484 277.466 152.41C277.528 152.263 277.589 152.123 277.643 151.988C277.698 151.854 277.75 151.727 277.799 151.607C277.898 151.367 277.981 151.156 278.047 150.98C278.114 150.806 278.163 150.667 278.196 150.572C278.229 150.476 278.245 150.425 278.245 150.425C278.245 150.425 278.208 150.465 278.14 150.543C278.073 150.62 277.975 150.734 277.855 150.881C277.734 151.028 277.59 151.208 277.429 151.417C277.409 151.443 277.388 151.469 277.367 151.496C277.357 151.509 277.347 151.523 277.336 151.537L277.334 151.539C277.33 151.546 277.332 151.543 277.331 151.545L277.327 151.55L277.319 151.561L277.304 151.582C277.263 151.638 277.22 151.696 277.177 151.755C277.089 151.874 277.001 152 276.907 152.132C276.86 152.197 276.813 152.265 276.766 152.333C276.719 152.404 276.671 152.475 276.622 152.547C276.525 152.692 276.426 152.844 276.326 153C276.275 153.078 276.226 153.157 276.176 153.238C276.127 153.319 276.077 153.402 276.027 153.485C275.926 153.651 275.824 153.821 275.726 153.997C275.628 154.174 275.527 154.352 275.43 154.536C275.335 154.721 275.237 154.907 275.143 155.097C275.097 155.193 275.052 155.29 275.006 155.386C274.96 155.483 274.913 155.579 274.871 155.679C274.784 155.876 274.697 156.074 274.618 156.277C274.457 156.681 274.314 157.095 274.205 157.521C274.19 157.574 274.179 157.629 274.167 157.683C274.155 157.737 274.143 157.791 274.131 157.845C274.112 157.957 274.09 158.064 274.078 158.18L274.068 158.266C274.065 158.295 274.064 158.326 274.062 158.355L274.057 158.445C274.057 158.477 274.056 158.509 274.056 158.54V158.564L274.056 158.576Z" fill="white"/>
<g clip-path="url(#clip1_21_20)">
<g filter="url(#filter1_d_21_20)">
<mask id="path-5-outside-1_21_20" maskUnits="userSpaceOnUse" x="20.5" y="48" width="79" height="94" fill="black">
<rect fill="white" x="20.5" y="48" width="79" height="94"/>
<path d="M23.388 140V125.152H35.164V65.248H23.388V50.4H60.252C72.284 50.4 81.4147 53.472 87.644 59.616C93.9587 65.6747 97.116 74.72 97.116 86.752V103.648C97.116 115.68 93.9587 124.768 87.644 130.912C81.4147 136.971 72.284 140 60.252 140H23.388ZM52.06 124.64H60.508C67.3347 124.64 72.3267 122.848 75.484 119.264C78.6413 115.68 80.22 110.645 80.22 104.16V86.24C80.22 79.6693 78.6413 74.6347 75.484 71.136C72.3267 67.552 67.3347 65.76 60.508 65.76H52.06V124.64Z"/>
</mask>
<path d="M23.388 140V125.152H35.164V65.248H23.388V50.4H60.252C72.284 50.4 81.4147 53.472 87.644 59.616C93.9587 65.6747 97.116 74.72 97.116 86.752V103.648C97.116 115.68 93.9587 124.768 87.644 130.912C81.4147 136.971 72.284 140 60.252 140H23.388ZM52.06 124.64H60.508C67.3347 124.64 72.3267 122.848 75.484 119.264C78.6413 115.68 80.22 110.645 80.22 104.16V86.24C80.22 79.6693 78.6413 74.6347 75.484 71.136C72.3267 67.552 67.3347 65.76 60.508 65.76H52.06V124.64Z" fill="#8BFF00"/>
<path d="M23.388 140H21.388V142H23.388V140ZM23.388 125.152V123.152H21.388V125.152H23.388ZM35.164 125.152V127.152H37.164V125.152H35.164ZM35.164 65.248H37.164V63.248H35.164V65.248ZM23.388 65.248H21.388V67.248H23.388V65.248ZM23.388 50.4V48.4H21.388V50.4H23.388ZM87.644 59.616L86.2396 61.0399L86.2494 61.0496L86.2593 61.0592L87.644 59.616ZM87.644 130.912L89.0384 132.346L89.0387 132.345L87.644 130.912ZM52.06 124.64H50.06V126.64H52.06V124.64ZM75.484 119.264L76.9847 120.586V120.586L75.484 119.264ZM75.484 71.136L73.9833 72.4581L73.9912 72.467L73.9992 72.4759L75.484 71.136ZM52.06 65.76V63.76H50.06V65.76H52.06ZM23.388 140H25.388V125.152H23.388H21.388V140H23.388ZM23.388 125.152V127.152H35.164V125.152V123.152H23.388V125.152ZM35.164 125.152H37.164V65.248H35.164H33.164V125.152H35.164ZM35.164 65.248V63.248H23.388V65.248V67.248H35.164V65.248ZM23.388 65.248H25.388V50.4H23.388H21.388V65.248H23.388ZM23.388 50.4V52.4H60.252V50.4V48.4H23.388V50.4ZM60.252 50.4V52.4C71.9594 52.4 80.5067 55.3856 86.2396 61.0399L87.644 59.616L89.0484 58.1921C82.3226 51.5584 72.6086 48.4 60.252 48.4V50.4ZM87.644 59.616L86.2593 61.0592C92.0515 66.6165 95.116 75.0547 95.116 86.752H97.116H99.116C99.116 74.3852 95.8658 64.7328 89.0287 58.1728L87.644 59.616ZM97.116 86.752H95.116V103.648H97.116H99.116V86.752H97.116ZM97.116 103.648H95.116C95.116 115.343 92.0523 123.832 86.2493 129.479L87.644 130.912L89.0387 132.345C95.8651 125.704 99.116 116.017 99.116 103.648H97.116ZM87.644 130.912L86.2496 129.478C80.5176 135.053 71.9665 138 60.252 138V140V142C72.6015 142 82.3118 138.888 89.0384 132.346L87.644 130.912ZM60.252 140V138H23.388V140V142H60.252V140ZM52.06 124.64V126.64H60.508V124.64V122.64H52.06V124.64ZM60.508 124.64V126.64C67.6557 126.64 73.3074 124.76 76.9847 120.586L75.484 119.264L73.9833 117.942C71.346 120.936 67.0137 122.64 60.508 122.64V124.64ZM75.484 119.264L76.9847 120.586C80.5634 116.524 82.22 110.957 82.22 104.16H80.22H78.22C78.22 110.334 76.7192 114.836 73.9833 117.942L75.484 119.264ZM80.22 104.16H82.22V86.24H80.22H78.22V104.16H80.22ZM80.22 86.24H82.22C82.22 79.3697 80.5688 73.7852 76.9688 69.7961L75.484 71.136L73.9992 72.4759C76.7139 75.4841 78.22 79.969 78.22 86.24H80.22ZM75.484 71.136L76.9847 69.8139C73.3074 65.6396 67.6557 63.76 60.508 63.76V65.76V67.76C67.0137 67.76 71.346 69.4643 73.9833 72.4581L75.484 71.136ZM60.508 65.76V63.76H52.06V65.76V67.76H60.508V65.76ZM52.06 65.76H50.06V124.64H52.06H54.06V65.76H52.06Z" fill="black" mask="url(#path-5-outside-1_21_20)"/>
</g>
<g filter="url(#filter2_d_21_20)">
<mask id="path-7-outside-2_21_20" maskUnits="userSpaceOnUse" x="115.5" y="48" width="63" height="94" fill="black">
<rect fill="white" x="115.5" y="48" width="63" height="94"/>
<path d="M117.948 140V50.4H175.548V65.76H134.844V87.136H171.964V102.496H134.844V124.64H176.316V140H117.948Z"/>
</mask>
<path d="M117.948 140V50.4H175.548V65.76H134.844V87.136H171.964V102.496H134.844V124.64H176.316V140H117.948Z" fill="#8BFF00"/>
<path d="M117.948 140H115.948V142H117.948V140ZM117.948 50.4V48.4H115.948V50.4H117.948ZM175.548 50.4H177.548V48.4H175.548V50.4ZM175.548 65.76V67.76H177.548V65.76H175.548ZM134.844 65.76V63.76H132.844V65.76H134.844ZM134.844 87.136H132.844V89.136H134.844V87.136ZM171.964 87.136H173.964V85.136H171.964V87.136ZM171.964 102.496V104.496H173.964V102.496H171.964ZM134.844 102.496V100.496H132.844V102.496H134.844ZM134.844 124.64H132.844V126.64H134.844V124.64ZM176.316 124.64H178.316V122.64H176.316V124.64ZM176.316 140V142H178.316V140H176.316ZM117.948 140H119.948V50.4H117.948H115.948V140H117.948ZM117.948 50.4V52.4H175.548V50.4V48.4H117.948V50.4ZM175.548 50.4H173.548V65.76H175.548H177.548V50.4H175.548ZM175.548 65.76V63.76H134.844V65.76V67.76H175.548V65.76ZM134.844 65.76H132.844V87.136H134.844H136.844V65.76H134.844ZM134.844 87.136V89.136H171.964V87.136V85.136H134.844V87.136ZM171.964 87.136H169.964V102.496H171.964H173.964V87.136H171.964ZM171.964 102.496V100.496H134.844V102.496V104.496H171.964V102.496ZM134.844 102.496H132.844V124.64H134.844H136.844V102.496H134.844ZM134.844 124.64V126.64H176.316V124.64V122.64H134.844V124.64ZM176.316 124.64H174.316V140H176.316H178.316V124.64H176.316ZM176.316 140V138H117.948V140V142H176.316V140Z" fill="black" mask="url(#path-7-outside-2_21_20)"/>
</g>
<g filter="url(#filter3_d_21_20)">
<mask id="path-9-outside-3_21_20" maskUnits="userSpaceOnUse" x="186.5" y="48" width="81" height="94" fill="black">
<rect fill="white" x="186.5" y="48" width="81" height="94"/>
<path d="M212.588 140L189.804 50.4H207.212L226.156 129.12H227.948L246.892 50.4H264.3L241.516 140H212.588Z"/>
</mask>
<path d="M212.588 140L189.804 50.4H207.212L226.156 129.12H227.948L246.892 50.4H264.3L241.516 140H212.588Z" fill="#8BFF00"/>
<path d="M212.588 140L210.65 140.493L211.033 142H212.588V140ZM189.804 50.4V48.4H187.232L187.866 50.8929L189.804 50.4ZM207.212 50.4L209.156 49.9321L208.788 48.4H207.212V50.4ZM226.156 129.12L224.212 129.588L224.58 131.12H226.156V129.12ZM227.948 129.12V131.12H229.524L229.892 129.588L227.948 129.12ZM246.892 50.4V48.4H245.316L244.948 49.9321L246.892 50.4ZM264.3 50.4L266.238 50.8929L266.872 48.4H264.3V50.4ZM241.516 140V142H243.071L243.454 140.493L241.516 140ZM212.588 140L214.526 139.507L191.742 49.9071L189.804 50.4L187.866 50.8929L210.65 140.493L212.588 140ZM189.804 50.4V52.4H207.212V50.4V48.4H189.804V50.4ZM207.212 50.4L205.268 50.8679L224.212 129.588L226.156 129.12L228.1 128.652L209.156 49.9321L207.212 50.4ZM226.156 129.12V131.12H227.948V129.12V127.12H226.156V129.12ZM227.948 129.12L229.892 129.588L248.836 50.8679L246.892 50.4L244.948 49.9321L226.004 128.652L227.948 129.12ZM246.892 50.4V52.4H264.3V50.4V48.4H246.892V50.4ZM264.3 50.4L262.362 49.9071L239.578 139.507L241.516 140L243.454 140.493L266.238 50.8929L264.3 50.4ZM241.516 140V138H212.588V140V142H241.516V140Z" fill="black" mask="url(#path-9-outside-3_21_20)"/>
</g>
</g>
<g filter="url(#filter4_d_21_20)">
<path d="M279 48H296V111L279 142V48Z" fill="black"/>
<path d="M295 49V110.743L280 138.097V49H295Z" stroke="#8BFF00" stroke-width="2"/>
</g>
<g filter="url(#filter5_d_21_20)">
<mask id="path-13-outside-4_21_20" maskUnits="userSpaceOnUse" x="307.5" y="48" width="74" height="94" fill="black">
<rect fill="white" x="307.5" y="48" width="74" height="94"/>
<path d="M309.948 140V50.4H342.076L359.868 128.48H362.172V50.4H378.812V140H346.684L328.892 61.92H326.588V140H309.948Z"/>
</mask>
<path d="M309.948 140V50.4H342.076L359.868 128.48H362.172V50.4H378.812V140H346.684L328.892 61.92H326.588V140H309.948Z" fill="#8BFF00"/>
<path d="M309.948 140H307.948V142H309.948V140ZM309.948 50.4V48.4H307.948V50.4H309.948ZM342.076 50.4L344.026 49.9556L343.672 48.4H342.076V50.4ZM359.868 128.48L357.918 128.924L358.272 130.48H359.868V128.48ZM362.172 128.48V130.48H364.172V128.48H362.172ZM362.172 50.4V48.4H360.172V50.4H362.172ZM378.812 50.4H380.812V48.4H378.812V50.4ZM378.812 140V142H380.812V140H378.812ZM346.684 140L344.734 140.444L345.088 142H346.684V140ZM328.892 61.92L330.842 61.4756L330.488 59.92H328.892V61.92ZM326.588 61.92V59.92H324.588V61.92H326.588ZM326.588 140V142H328.588V140H326.588ZM309.948 140H311.948V50.4H309.948H307.948V140H309.948ZM309.948 50.4V52.4H342.076V50.4V48.4H309.948V50.4ZM342.076 50.4L340.126 50.8443L357.918 128.924L359.868 128.48L361.818 128.036L344.026 49.9556L342.076 50.4ZM359.868 128.48V130.48H362.172V128.48V126.48H359.868V128.48ZM362.172 128.48H364.172V50.4H362.172H360.172V128.48H362.172ZM362.172 50.4V52.4H378.812V50.4V48.4H362.172V50.4ZM378.812 50.4H376.812V140H378.812H380.812V50.4H378.812ZM378.812 140V138H346.684V140V142H378.812V140ZM346.684 140L348.634 139.556L330.842 61.4756L328.892 61.92L326.942 62.3643L344.734 140.444L346.684 140ZM328.892 61.92V59.92H326.588V61.92V63.92H328.892V61.92ZM326.588 61.92H324.588V140H326.588H328.588V61.92H326.588ZM326.588 140V138H309.948V140V142H326.588V140Z" fill="black" mask="url(#path-13-outside-4_21_20)"/>
</g>
<g filter="url(#filter6_d_21_20)">
<mask id="path-15-outside-5_21_20" maskUnits="userSpaceOnUse" x="397.5" y="48" width="78" height="94" fill="black">
<rect fill="white" x="397.5" y="48" width="78" height="94"/>
<path d="M399.948 140V50.4H416.844V85.984H419.148L448.204 50.4H469.836L432.46 94.56L471.116 140H448.844L419.148 103.648H416.844V140H399.948Z"/>
</mask>
<path d="M399.948 140V50.4H416.844V85.984H419.148L448.204 50.4H469.836L432.46 94.56L471.116 140H448.844L419.148 103.648H416.844V140H399.948Z" fill="#8BFF00"/>
<path d="M399.948 140H397.948V142H399.948V140ZM399.948 50.4V48.4H397.948V50.4H399.948ZM416.844 50.4H418.844V48.4H416.844V50.4ZM416.844 85.984H414.844V87.984H416.844V85.984ZM419.148 85.984V87.984H420.097L420.697 87.249L419.148 85.984ZM448.204 50.4V48.4H447.255L446.655 49.135L448.204 50.4ZM469.836 50.4L471.363 51.6921L474.149 48.4H469.836V50.4ZM432.46 94.56L430.933 93.2679L429.837 94.5633L430.937 95.8559L432.46 94.56ZM471.116 140V142H475.443L472.639 138.704L471.116 140ZM448.844 140L447.295 141.265L447.895 142H448.844V140ZM419.148 103.648L420.697 102.383L420.097 101.648H419.148V103.648ZM416.844 103.648V101.648H414.844V103.648H416.844ZM416.844 140V142H418.844V140H416.844ZM399.948 140H401.948V50.4H399.948H397.948V140H399.948ZM399.948 50.4V52.4H416.844V50.4V48.4H399.948V50.4ZM416.844 50.4H414.844V85.984H416.844H418.844V50.4H416.844ZM416.844 85.984V87.984H419.148V85.984V83.984H416.844V85.984ZM419.148 85.984L420.697 87.249L449.753 51.665L448.204 50.4L446.655 49.135L417.599 84.719L419.148 85.984ZM448.204 50.4V52.4H469.836V50.4V48.4H448.204V50.4ZM469.836 50.4L468.309 49.1079L430.933 93.2679L432.46 94.56L433.987 95.8521L471.363 51.6921L469.836 50.4ZM432.46 94.56L430.937 95.8559L469.593 141.296L471.116 140L472.639 138.704L433.983 93.2641L432.46 94.56ZM471.116 140V138H448.844V140V142H471.116V140ZM448.844 140L450.393 138.735L420.697 102.383L419.148 103.648L417.599 104.913L447.295 141.265L448.844 140ZM419.148 103.648V101.648H416.844V103.648V105.648H419.148V103.648ZM416.844 103.648H414.844V140H416.844H418.844V103.648H416.844ZM416.844 140V138H399.948V140V142H416.844V140Z" fill="black" mask="url(#path-15-outside-5_21_20)"/>
</g>
</g>
<defs>
<filter id="filter0_d_21_20" x="271" y="141.301" width="23" height="31.6987" filterUnits="userSpaceOnUse" color-interpolation-filters="sRGB">
<feFlood flood-opacity="0" result="BackgroundImageFix"/>
<feColorMatrix in="SourceAlpha" type="matrix" values="0 0 0 0 0 0 0 0 0 0 0 0 0 0 0 0 0 0 127 0" result="hardAlpha"/>
<feOffset dx="6" dy="6"/>
<feComposite in2="hardAlpha" operator="out"/>
<feColorMatrix type="matrix" values="0 0 0 0 0 0 0 0 0 0 0 0 0 0 0 0 0 0 1 0"/>
<feBlend mode="normal" in2="BackgroundImageFix" result="effect1_dropShadow_21_20"/>
<feBlend mode="normal" in="SourceGraphic" in2="effect1_dropShadow_21_20" result="shape"/>
</filter>
<filter id="filter1_d_21_20" x="21.388" y="48.4" width="83.728" height="99.6" filterUnits="userSpaceOnUse" color-interpolation-filters="sRGB">
<feFlood flood-opacity="0" result="BackgroundImageFix"/>
<feColorMatrix in="SourceAlpha" type="matrix" values="0 0 0 0 0 0 0 0 0 0 0 0 0 0 0 0 0 0 127 0" result="hardAlpha"/>
<feOffset dx="6" dy="6"/>
<feComposite in2="hardAlpha" operator="out"/>
<feColorMatrix type="matrix" values="0 0 0 0 0 0 0 0 0 0 0 0 0 0 0 0 0 0 1 0"/>
<feBlend mode="normal" in2="BackgroundImageFix" result="effect1_dropShadow_21_20"/>
<feBlend mode="normal" in="SourceGraphic" in2="effect1_dropShadow_21_20" result="shape"/>
</filter>
<filter id="filter2_d_21_20" x="115.948" y="48.4" width="68.368" height="99.6" filterUnits="userSpaceOnUse" color-interpolation-filters="sRGB">
<feFlood flood-opacity="0" result="BackgroundImageFix"/>
<feColorMatrix in="SourceAlpha" type="matrix" values="0 0 0 0 0 0 0 0 0 0 0 0 0 0 0 0 0 0 127 0" result="hardAlpha"/>
<feOffset dx="6" dy="6"/>
<feComposite in2="hardAlpha" operator="out"/>
<feColorMatrix type="matrix" values="0 0 0 0 0 0 0 0 0 0 0 0 0 0 0 0 0 0 1 0"/>
<feBlend mode="normal" in2="BackgroundImageFix" result="effect1_dropShadow_21_20"/>
<feBlend mode="normal" in="SourceGraphic" in2="effect1_dropShadow_21_20" result="shape"/>
</filter>
<filter id="filter3_d_21_20" x="187.232" y="48.4" width="85.6404" height="99.6" filterUnits="userSpaceOnUse" color-interpolation-filters="sRGB">
<feFlood flood-opacity="0" result="BackgroundImageFix"/>
<feColorMatrix in="SourceAlpha" type="matrix" values="0 0 0 0 0 0 0 0 0 0 0 0 0 0 0 0 0 0 127 0" result="hardAlpha"/>
<feOffset dx="6" dy="6"/>
<feComposite in2="hardAlpha" operator="out"/>
<feColorMatrix type="matrix" values="0 0 0 0 0 0 0 0 0 0 0 0 0 0 0 0 0 0 1 0"/>
<feBlend mode="normal" in2="BackgroundImageFix" result="effect1_dropShadow_21_20"/>
<feBlend mode="normal" in="SourceGraphic" in2="effect1_dropShadow_21_20" result="shape"/>
</filter>
<filter id="filter4_d_21_20" x="279" y="48" width="23" height="100" filterUnits="userSpaceOnUse" color-interpolation-filters="sRGB">
<feFlood flood-opacity="0" result="BackgroundImageFix"/>
<feColorMatrix in="SourceAlpha" type="matrix" values="0 0 0 0 0 0 0 0 0 0 0 0 0 0 0 0 0 0 127 0" result="hardAlpha"/>
<feOffset dx="6" dy="6"/>
<feComposite in2="hardAlpha" operator="out"/>
<feColorMatrix type="matrix" values="0 0 0 0 0 0 0 0 0 0 0 0 0 0 0 0 0 0 1 0"/>
<feBlend mode="normal" in2="BackgroundImageFix" result="effect1_dropShadow_21_20"/>
<feBlend mode="normal" in="SourceGraphic" in2="effect1_dropShadow_21_20" result="shape"/>
</filter>
<filter id="filter5_d_21_20" x="307.948" y="48.4" width="78.864" height="99.6" filterUnits="userSpaceOnUse" color-interpolation-filters="sRGB">
<feFlood flood-opacity="0" result="BackgroundImageFix"/>
<feColorMatrix in="SourceAlpha" type="matrix" values="0 0 0 0 0 0 0 0 0 0 0 0 0 0 0 0 0 0 127 0" result="hardAlpha"/>
<feOffset dx="6" dy="6"/>
<feComposite in2="hardAlpha" operator="out"/>
<feColorMatrix type="matrix" values="0 0 0 0 0 0 0 0 0 0 0 0 0 0 0 0 0 0 1 0"/>
<feBlend mode="normal" in2="BackgroundImageFix" result="effect1_dropShadow_21_20"/>
<feBlend mode="normal" in="SourceGraphic" in2="effect1_dropShadow_21_20" result="shape"/>
</filter>
<filter id="filter6_d_21_20" x="397.948" y="48.4" width="83.4952" height="99.6" filterUnits="userSpaceOnUse" color-interpolation-filters="sRGB">
<feFlood flood-opacity="0" result="BackgroundImageFix"/>
<feColorMatrix in="SourceAlpha" type="matrix" values="0 0 0 0 0 0 0 0 0 0 0 0 0 0 0 0 0 0 127 0" result="hardAlpha"/>
<feOffset dx="6" dy="6"/>
<feComposite in2="hardAlpha" operator="out"/>
<feColorMatrix type="matrix" values="0 0 0 0 0 0 0 0 0 0 0 0 0 0 0 0 0 0 1 0"/>
<feBlend mode="normal" in2="BackgroundImageFix" result="effect1_dropShadow_21_20"/>
<feBlend mode="normal" in="SourceGraphic" in2="effect1_dropShadow_21_20" result="shape"/>
</filter>
<clipPath id="clip0_21_20">
<rect width="500" height="200" fill="white"/>
</clipPath>
<clipPath id="clip1_21_20">
<rect width="260" height="108" fill="white" transform="translate(17.5 41)"/>
</clipPath>
</defs>
</svg>
