<svg width="640" height="640" viewBox="0 0 640 640" fill="none" xmlns="http://www.w3.org/2000/svg">
<path d="M400.533 546.667C400.527 560.177 400.521 573.42 400.511 586.663C400.511 586.741 400.456 586.818 400.369 587.048C320.57 587.048 240.713 587.048 160.533 587.048C160.533 586.162 160.534 585.223 160.533 584.283C160.5 557.797 160.8 531.305 160.341 504.826C159.887 478.682 155.154 453.357 143.544 429.611C136.536 415.278 127.449 402.263 118.388 389.228C106.344 371.903 95.6291 353.918 89.4005 333.556C84.6237 317.939 82.1063 301.951 81.0915 285.7C80.176 271.041 80.3178 256.408 82.0568 241.791C84.9434 217.529 91.5831 194.353 102.683 172.615C129.762 119.584 171.587 83.465 228.065 64.4476C240.701 60.193 253.687 57.4188 267.2 55.7376C267.2 56.8224 267.2 57.7738 267.2 58.7251C267.2 120.942 267.19 183.16 267.249 245.377C267.251 247.314 266.612 248.278 265.03 249.348C249.129 260.105 240.499 275.031 240.674 294.349C240.791 307.305 246.765 318.086 255.451 327.354C263.628 336.08 272.949 343.178 284.851 346.13C291.548 347.791 298.252 347.462 304.886 345.802C306.822 345.318 308.048 345.658 309.502 347.119C330.429 368.155 351.45 389.098 372.377 410.135C373.233 410.994 373.83 412.555 373.809 413.777C373.473 433.084 388.758 450.9 407.91 453.378C433.477 456.686 454.609 437.594 453.826 411.894C453.191 391.061 434.651 373.474 413.798 373.809C412.578 373.829 411.015 373.264 410.163 372.416C388.999 351.363 367.921 330.222 346.773 309.151C345.613 307.995 345.262 306.975 345.658 305.445C351.174 284.141 341.278 261.042 322.524 249.227C321.094 248.326 320.484 247.455 320.486 245.683C320.543 183.111 320.534 120.538 320.534 57.9654C320.534 57.3521 320.534 56.7388 320.534 55.5782C326.72 56.6642 332.73 57.5086 338.644 58.7916C373.725 66.4023 405.092 81.7037 432.303 105.12C468.732 136.47 492.222 175.683 502.394 222.728C503.778 229.131 504.514 235.673 505.665 242.13C505.889 243.384 506.487 244.644 507.179 245.732C526.798 276.573 546.451 307.393 566.098 338.218C567.955 341.131 569.8 344.052 571.786 347.181C565.546 349.839 559.381 352.493 553.195 355.095C538.575 361.246 523.955 367.397 509.304 373.474C507.672 374.151 507.147 374.977 507.149 376.783C507.215 419.18 507.2 461.576 507.2 503.973C507.2 504.941 507.2 505.909 507.2 507.099C471.69 507.099 436.276 507.099 400.533 507.099C400.533 520.345 400.533 533.372 400.533 546.667Z" fill="white"/>
</svg>
