<svg width="1440" height="240" viewBox="0 0 1440 240" fill="none" xmlns="http://www.w3.org/2000/svg">
<g clip-path="url(#clip0_17_239)">
<path d="M239.814 0.185547V239.884" stroke="black" stroke-width="0.25" stroke-linecap="round" stroke-linejoin="round"/>
<path d="M219.845 0.185547V239.884" stroke="black" stroke-width="0.25" stroke-linecap="round" stroke-linejoin="round"/>
<path d="M199.877 0.185547V239.884" stroke="black" stroke-width="0.25" stroke-linecap="round" stroke-linejoin="round"/>
<path d="M179.907 0.185547V239.884" stroke="black" stroke-width="0.25" stroke-linecap="round" stroke-linejoin="round"/>
<path d="M159.937 0.185547V239.884" stroke="black" stroke-width="0.25" stroke-linecap="round" stroke-linejoin="round"/>
<path d="M139.969 0.185547V239.884" stroke="black" stroke-width="0.25" stroke-linecap="round" stroke-linejoin="round"/>
<path d="M119.999 0.185547V239.884" stroke="black" stroke-width="0.25" stroke-linecap="round" stroke-linejoin="round"/>
<path d="M100.031 0.185547V239.884" stroke="black" stroke-width="0.25" stroke-linecap="round" stroke-linejoin="round"/>
<path d="M80.0615 0.185547V239.884" stroke="black" stroke-width="0.25" stroke-linecap="round" stroke-linejoin="round"/>
<path d="M60.0931 0.185547V239.884" stroke="black" stroke-width="0.25" stroke-linecap="round" stroke-linejoin="round"/>
<path d="M40.1235 0.185547V239.884" stroke="black" stroke-width="0.25" stroke-linecap="round" stroke-linejoin="round"/>
<path d="M20.155 0.185547V239.884" stroke="black" stroke-width="0.25" stroke-linecap="round" stroke-linejoin="round"/>
<path d="M0.185535 0.185547V239.884" stroke="black" stroke-width="0.25" stroke-linecap="round" stroke-linejoin="round"/>
<path d="M0.185547 0.185759H239.815" stroke="black" stroke-width="0.25" stroke-linecap="round" stroke-linejoin="round"/>
<path d="M0.185547 20.161H239.815" stroke="black" stroke-width="0.25" stroke-linecap="round" stroke-linejoin="round"/>
<path d="M0.185547 40.1352H239.815" stroke="black" stroke-width="0.25" stroke-linecap="round" stroke-linejoin="round"/>
<path d="M0.185547 60.1108H239.815" stroke="black" stroke-width="0.25" stroke-linecap="round" stroke-linejoin="round"/>
<path d="M0.185547 80.0847H239.815" stroke="black" stroke-width="0.25" stroke-linecap="round" stroke-linejoin="round"/>
<path d="M0.185547 100.06H239.815" stroke="black" stroke-width="0.25" stroke-linecap="round" stroke-linejoin="round"/>
<path d="M0.185547 120.034H239.815" stroke="black" stroke-width="0.25" stroke-linecap="round" stroke-linejoin="round"/>
<path d="M0.185547 140.01H239.815" stroke="black" stroke-width="0.25" stroke-linecap="round" stroke-linejoin="round"/>
<path d="M0.185547 159.984H239.815" stroke="black" stroke-width="0.25" stroke-linecap="round" stroke-linejoin="round"/>
<path d="M0.185547 179.959H239.815" stroke="black" stroke-width="0.25" stroke-linecap="round" stroke-linejoin="round"/>
<path d="M0.185547 199.935H239.815" stroke="black" stroke-width="0.25" stroke-linecap="round" stroke-linejoin="round"/>
<path d="M0.185547 219.909H239.815" stroke="black" stroke-width="0.25" stroke-linecap="round" stroke-linejoin="round"/>
<mask id="mask0_17_239" style="mask-type:luminance" maskUnits="userSpaceOnUse" x="0" y="239" width="240" height="1">
<path fill-rule="evenodd" clip-rule="evenodd" d="M0.185547 239.699H239.815V239.931H0.185547V239.699Z" fill="white"/>
</mask>
<g mask="url(#mask0_17_239)">
<path d="M0.185547 239.884H239.815" stroke="black" stroke-width="0.25" stroke-linecap="round" stroke-linejoin="round"/>
</g>
<path d="M479.814 0.185547V239.884" stroke="black" stroke-width="0.25" stroke-linecap="round" stroke-linejoin="round"/>
<path d="M459.845 0.185547V239.884" stroke="black" stroke-width="0.25" stroke-linecap="round" stroke-linejoin="round"/>
<path d="M439.877 0.185547V239.884" stroke="black" stroke-width="0.25" stroke-linecap="round" stroke-linejoin="round"/>
<path d="M419.907 0.185547V239.884" stroke="black" stroke-width="0.25" stroke-linecap="round" stroke-linejoin="round"/>
<path d="M399.937 0.185547V239.884" stroke="black" stroke-width="0.25" stroke-linecap="round" stroke-linejoin="round"/>
<path d="M379.969 0.185547V239.884" stroke="black" stroke-width="0.25" stroke-linecap="round" stroke-linejoin="round"/>
<path d="M359.999 0.185547V239.884" stroke="black" stroke-width="0.25" stroke-linecap="round" stroke-linejoin="round"/>
<path d="M340.031 0.185547V239.884" stroke="black" stroke-width="0.25" stroke-linecap="round" stroke-linejoin="round"/>
<path d="M320.062 0.185547V239.884" stroke="black" stroke-width="0.25" stroke-linecap="round" stroke-linejoin="round"/>
<path d="M300.093 0.185547V239.884" stroke="black" stroke-width="0.25" stroke-linecap="round" stroke-linejoin="round"/>
<path d="M280.123 0.185547V239.884" stroke="black" stroke-width="0.25" stroke-linecap="round" stroke-linejoin="round"/>
<path d="M260.155 0.185547V239.884" stroke="black" stroke-width="0.25" stroke-linecap="round" stroke-linejoin="round"/>
<path d="M240.186 0.185547V239.884" stroke="black" stroke-width="0.25" stroke-linecap="round" stroke-linejoin="round"/>
<path d="M240.186 0.185759H479.815" stroke="black" stroke-width="0.25" stroke-linecap="round" stroke-linejoin="round"/>
<path d="M240.186 20.161H479.815" stroke="black" stroke-width="0.25" stroke-linecap="round" stroke-linejoin="round"/>
<path d="M240.186 40.1352H479.815" stroke="black" stroke-width="0.25" stroke-linecap="round" stroke-linejoin="round"/>
<path d="M240.186 60.1108H479.815" stroke="black" stroke-width="0.25" stroke-linecap="round" stroke-linejoin="round"/>
<path d="M240.186 80.0847H479.815" stroke="black" stroke-width="0.25" stroke-linecap="round" stroke-linejoin="round"/>
<path d="M240.186 100.06H479.815" stroke="black" stroke-width="0.25" stroke-linecap="round" stroke-linejoin="round"/>
<path d="M240.186 120.034H479.815" stroke="black" stroke-width="0.25" stroke-linecap="round" stroke-linejoin="round"/>
<path d="M240.186 140.01H479.815" stroke="black" stroke-width="0.25" stroke-linecap="round" stroke-linejoin="round"/>
<path d="M240.186 159.984H479.815" stroke="black" stroke-width="0.25" stroke-linecap="round" stroke-linejoin="round"/>
<path d="M240.186 179.959H479.815" stroke="black" stroke-width="0.25" stroke-linecap="round" stroke-linejoin="round"/>
<path d="M240.186 199.935H479.815" stroke="black" stroke-width="0.25" stroke-linecap="round" stroke-linejoin="round"/>
<path d="M240.186 219.909H479.815" stroke="black" stroke-width="0.25" stroke-linecap="round" stroke-linejoin="round"/>
<mask id="mask1_17_239" style="mask-type:luminance" maskUnits="userSpaceOnUse" x="240" y="239" width="240" height="1">
<path fill-rule="evenodd" clip-rule="evenodd" d="M240.186 239.699H479.815V239.931H240.186V239.699Z" fill="white"/>
</mask>
<g mask="url(#mask1_17_239)">
<path d="M240.186 239.884H479.815" stroke="black" stroke-width="0.25" stroke-linecap="round" stroke-linejoin="round"/>
</g>
<path d="M719.814 0.185547V239.884" stroke="black" stroke-width="0.25" stroke-linecap="round" stroke-linejoin="round"/>
<path d="M699.845 0.185547V239.884" stroke="black" stroke-width="0.25" stroke-linecap="round" stroke-linejoin="round"/>
<path d="M679.877 0.185547V239.884" stroke="black" stroke-width="0.25" stroke-linecap="round" stroke-linejoin="round"/>
<path d="M659.907 0.185547V239.884" stroke="black" stroke-width="0.25" stroke-linecap="round" stroke-linejoin="round"/>
<path d="M639.937 0.185547V239.884" stroke="black" stroke-width="0.25" stroke-linecap="round" stroke-linejoin="round"/>
<path d="M619.969 0.185547V239.884" stroke="black" stroke-width="0.25" stroke-linecap="round" stroke-linejoin="round"/>
<path d="M599.999 0.185547V239.884" stroke="black" stroke-width="0.25" stroke-linecap="round" stroke-linejoin="round"/>
<path d="M580.031 0.185547V239.884" stroke="black" stroke-width="0.25" stroke-linecap="round" stroke-linejoin="round"/>
<path d="M560.062 0.185547V239.884" stroke="black" stroke-width="0.25" stroke-linecap="round" stroke-linejoin="round"/>
<path d="M540.093 0.185547V239.884" stroke="black" stroke-width="0.25" stroke-linecap="round" stroke-linejoin="round"/>
<path d="M520.123 0.185547V239.884" stroke="black" stroke-width="0.25" stroke-linecap="round" stroke-linejoin="round"/>
<path d="M500.155 0.185547V239.884" stroke="black" stroke-width="0.25" stroke-linecap="round" stroke-linejoin="round"/>
<path d="M480.186 0.185547V239.884" stroke="black" stroke-width="0.25" stroke-linecap="round" stroke-linejoin="round"/>
<path d="M480.186 0.185759H719.815" stroke="black" stroke-width="0.25" stroke-linecap="round" stroke-linejoin="round"/>
<path d="M480.186 20.161H719.815" stroke="black" stroke-width="0.25" stroke-linecap="round" stroke-linejoin="round"/>
<path d="M480.186 40.1352H719.815" stroke="black" stroke-width="0.25" stroke-linecap="round" stroke-linejoin="round"/>
<path d="M480.186 60.1108H719.815" stroke="black" stroke-width="0.25" stroke-linecap="round" stroke-linejoin="round"/>
<path d="M480.186 80.0847H719.815" stroke="black" stroke-width="0.25" stroke-linecap="round" stroke-linejoin="round"/>
<path d="M480.186 100.06H719.815" stroke="black" stroke-width="0.25" stroke-linecap="round" stroke-linejoin="round"/>
<path d="M480.186 120.034H719.815" stroke="black" stroke-width="0.25" stroke-linecap="round" stroke-linejoin="round"/>
<path d="M480.186 140.01H719.815" stroke="black" stroke-width="0.25" stroke-linecap="round" stroke-linejoin="round"/>
<path d="M480.186 159.984H719.815" stroke="black" stroke-width="0.25" stroke-linecap="round" stroke-linejoin="round"/>
<path d="M480.186 179.959H719.815" stroke="black" stroke-width="0.25" stroke-linecap="round" stroke-linejoin="round"/>
<path d="M480.186 199.935H719.815" stroke="black" stroke-width="0.25" stroke-linecap="round" stroke-linejoin="round"/>
<path d="M480.186 219.909H719.815" stroke="black" stroke-width="0.25" stroke-linecap="round" stroke-linejoin="round"/>
<mask id="mask2_17_239" style="mask-type:luminance" maskUnits="userSpaceOnUse" x="480" y="239" width="240" height="1">
<path fill-rule="evenodd" clip-rule="evenodd" d="M480.186 239.699H719.815V239.931H480.186V239.699Z" fill="white"/>
</mask>
<g mask="url(#mask2_17_239)">
<path d="M480.186 239.884H719.815" stroke="black" stroke-width="0.25" stroke-linecap="round" stroke-linejoin="round"/>
</g>
<path d="M959.814 0.185547V239.884" stroke="black" stroke-width="0.25" stroke-linecap="round" stroke-linejoin="round"/>
<path d="M939.845 0.185547V239.884" stroke="black" stroke-width="0.25" stroke-linecap="round" stroke-linejoin="round"/>
<path d="M919.877 0.185547V239.884" stroke="black" stroke-width="0.25" stroke-linecap="round" stroke-linejoin="round"/>
<path d="M899.907 0.185547V239.884" stroke="black" stroke-width="0.25" stroke-linecap="round" stroke-linejoin="round"/>
<path d="M879.937 0.185547V239.884" stroke="black" stroke-width="0.25" stroke-linecap="round" stroke-linejoin="round"/>
<path d="M859.969 0.185547V239.884" stroke="black" stroke-width="0.25" stroke-linecap="round" stroke-linejoin="round"/>
<path d="M839.999 0.185547V239.884" stroke="black" stroke-width="0.25" stroke-linecap="round" stroke-linejoin="round"/>
<path d="M820.031 0.185547V239.884" stroke="black" stroke-width="0.25" stroke-linecap="round" stroke-linejoin="round"/>
<path d="M800.062 0.185547V239.884" stroke="black" stroke-width="0.25" stroke-linecap="round" stroke-linejoin="round"/>
<path d="M780.093 0.185547V239.884" stroke="black" stroke-width="0.25" stroke-linecap="round" stroke-linejoin="round"/>
<path d="M760.123 0.185547V239.884" stroke="black" stroke-width="0.25" stroke-linecap="round" stroke-linejoin="round"/>
<path d="M740.155 0.185547V239.884" stroke="black" stroke-width="0.25" stroke-linecap="round" stroke-linejoin="round"/>
<path d="M720.186 0.185547V239.884" stroke="black" stroke-width="0.25" stroke-linecap="round" stroke-linejoin="round"/>
<path d="M720.186 0.185759H959.815" stroke="black" stroke-width="0.25" stroke-linecap="round" stroke-linejoin="round"/>
<path d="M720.186 20.161H959.815" stroke="black" stroke-width="0.25" stroke-linecap="round" stroke-linejoin="round"/>
<path d="M720.186 40.1352H959.815" stroke="black" stroke-width="0.25" stroke-linecap="round" stroke-linejoin="round"/>
<path d="M720.186 60.1108H959.815" stroke="black" stroke-width="0.25" stroke-linecap="round" stroke-linejoin="round"/>
<path d="M720.186 80.0847H959.815" stroke="black" stroke-width="0.25" stroke-linecap="round" stroke-linejoin="round"/>
<path d="M720.186 100.06H959.815" stroke="black" stroke-width="0.25" stroke-linecap="round" stroke-linejoin="round"/>
<path d="M720.186 120.034H959.815" stroke="black" stroke-width="0.25" stroke-linecap="round" stroke-linejoin="round"/>
<path d="M720.186 140.01H959.815" stroke="black" stroke-width="0.25" stroke-linecap="round" stroke-linejoin="round"/>
<path d="M720.186 159.984H959.815" stroke="black" stroke-width="0.25" stroke-linecap="round" stroke-linejoin="round"/>
<path d="M720.186 179.959H959.815" stroke="black" stroke-width="0.25" stroke-linecap="round" stroke-linejoin="round"/>
<path d="M720.186 199.935H959.815" stroke="black" stroke-width="0.25" stroke-linecap="round" stroke-linejoin="round"/>
<path d="M720.186 219.909H959.815" stroke="black" stroke-width="0.25" stroke-linecap="round" stroke-linejoin="round"/>
<mask id="mask3_17_239" style="mask-type:luminance" maskUnits="userSpaceOnUse" x="720" y="239" width="240" height="1">
<path fill-rule="evenodd" clip-rule="evenodd" d="M720.186 239.699H959.815V239.931H720.186V239.699Z" fill="white"/>
</mask>
<g mask="url(#mask3_17_239)">
<path d="M720.186 239.884H959.815" stroke="black" stroke-width="0.25" stroke-linecap="round" stroke-linejoin="round"/>
</g>
<path d="M1199.81 0.185547V239.884" stroke="black" stroke-width="0.25" stroke-linecap="round" stroke-linejoin="round"/>
<path d="M1179.84 0.185547V239.884" stroke="black" stroke-width="0.25" stroke-linecap="round" stroke-linejoin="round"/>
<path d="M1159.88 0.185547V239.884" stroke="black" stroke-width="0.25" stroke-linecap="round" stroke-linejoin="round"/>
<path d="M1139.91 0.185547V239.884" stroke="black" stroke-width="0.25" stroke-linecap="round" stroke-linejoin="round"/>
<path d="M1119.94 0.185547V239.884" stroke="black" stroke-width="0.25" stroke-linecap="round" stroke-linejoin="round"/>
<path d="M1099.97 0.185547V239.884" stroke="black" stroke-width="0.25" stroke-linecap="round" stroke-linejoin="round"/>
<path d="M1080 0.185547V239.884" stroke="black" stroke-width="0.25" stroke-linecap="round" stroke-linejoin="round"/>
<path d="M1060.03 0.185547V239.884" stroke="black" stroke-width="0.25" stroke-linecap="round" stroke-linejoin="round"/>
<path d="M1040.06 0.185547V239.884" stroke="black" stroke-width="0.25" stroke-linecap="round" stroke-linejoin="round"/>
<path d="M1020.09 0.185547V239.884" stroke="black" stroke-width="0.25" stroke-linecap="round" stroke-linejoin="round"/>
<path d="M1000.12 0.185547V239.884" stroke="black" stroke-width="0.25" stroke-linecap="round" stroke-linejoin="round"/>
<path d="M980.155 0.185547V239.884" stroke="black" stroke-width="0.25" stroke-linecap="round" stroke-linejoin="round"/>
<path d="M960.186 0.185547V239.884" stroke="black" stroke-width="0.25" stroke-linecap="round" stroke-linejoin="round"/>
<path d="M960.186 0.185759H1199.81" stroke="black" stroke-width="0.25" stroke-linecap="round" stroke-linejoin="round"/>
<path d="M960.186 20.161H1199.81" stroke="black" stroke-width="0.25" stroke-linecap="round" stroke-linejoin="round"/>
<path d="M960.186 40.1352H1199.81" stroke="black" stroke-width="0.25" stroke-linecap="round" stroke-linejoin="round"/>
<path d="M960.186 60.1108H1199.81" stroke="black" stroke-width="0.25" stroke-linecap="round" stroke-linejoin="round"/>
<path d="M960.186 80.0847H1199.81" stroke="black" stroke-width="0.25" stroke-linecap="round" stroke-linejoin="round"/>
<path d="M960.186 100.06H1199.81" stroke="black" stroke-width="0.25" stroke-linecap="round" stroke-linejoin="round"/>
<path d="M960.186 120.034H1199.81" stroke="black" stroke-width="0.25" stroke-linecap="round" stroke-linejoin="round"/>
<path d="M960.186 140.01H1199.81" stroke="black" stroke-width="0.25" stroke-linecap="round" stroke-linejoin="round"/>
<path d="M960.186 159.984H1199.81" stroke="black" stroke-width="0.25" stroke-linecap="round" stroke-linejoin="round"/>
<path d="M960.186 179.959H1199.81" stroke="black" stroke-width="0.25" stroke-linecap="round" stroke-linejoin="round"/>
<path d="M960.186 199.935H1199.81" stroke="black" stroke-width="0.25" stroke-linecap="round" stroke-linejoin="round"/>
<path d="M960.186 219.909H1199.81" stroke="black" stroke-width="0.25" stroke-linecap="round" stroke-linejoin="round"/>
<mask id="mask4_17_239" style="mask-type:luminance" maskUnits="userSpaceOnUse" x="960" y="239" width="240" height="1">
<path fill-rule="evenodd" clip-rule="evenodd" d="M960.186 239.699H1199.81V239.931H960.186V239.699Z" fill="white"/>
</mask>
<g mask="url(#mask4_17_239)">
<path d="M960.186 239.884H1199.81" stroke="black" stroke-width="0.25" stroke-linecap="round" stroke-linejoin="round"/>
</g>
<path d="M1439.81 0.185547V239.884" stroke="black" stroke-width="0.25" stroke-linecap="round" stroke-linejoin="round"/>
<path d="M1419.84 0.185547V239.884" stroke="black" stroke-width="0.25" stroke-linecap="round" stroke-linejoin="round"/>
<path d="M1399.88 0.185547V239.884" stroke="black" stroke-width="0.25" stroke-linecap="round" stroke-linejoin="round"/>
<path d="M1379.91 0.185547V239.884" stroke="black" stroke-width="0.25" stroke-linecap="round" stroke-linejoin="round"/>
<path d="M1359.94 0.185547V239.884" stroke="black" stroke-width="0.25" stroke-linecap="round" stroke-linejoin="round"/>
<path d="M1339.97 0.185547V239.884" stroke="black" stroke-width="0.25" stroke-linecap="round" stroke-linejoin="round"/>
<path d="M1320 0.185547V239.884" stroke="black" stroke-width="0.25" stroke-linecap="round" stroke-linejoin="round"/>
<path d="M1300.03 0.185547V239.884" stroke="black" stroke-width="0.25" stroke-linecap="round" stroke-linejoin="round"/>
<path d="M1280.06 0.185547V239.884" stroke="black" stroke-width="0.25" stroke-linecap="round" stroke-linejoin="round"/>
<path d="M1260.09 0.185547V239.884" stroke="black" stroke-width="0.25" stroke-linecap="round" stroke-linejoin="round"/>
<path d="M1240.12 0.185547V239.884" stroke="black" stroke-width="0.25" stroke-linecap="round" stroke-linejoin="round"/>
<path d="M1220.16 0.185547V239.884" stroke="black" stroke-width="0.25" stroke-linecap="round" stroke-linejoin="round"/>
<path d="M1200.19 0.185547V239.884" stroke="black" stroke-width="0.25" stroke-linecap="round" stroke-linejoin="round"/>
<path d="M1200.19 0.185759H1439.81" stroke="black" stroke-width="0.25" stroke-linecap="round" stroke-linejoin="round"/>
<path d="M1200.19 20.161H1439.81" stroke="black" stroke-width="0.25" stroke-linecap="round" stroke-linejoin="round"/>
<path d="M1200.19 40.1352H1439.81" stroke="black" stroke-width="0.25" stroke-linecap="round" stroke-linejoin="round"/>
<path d="M1200.19 60.1108H1439.81" stroke="black" stroke-width="0.25" stroke-linecap="round" stroke-linejoin="round"/>
<path d="M1200.19 80.0847H1439.81" stroke="black" stroke-width="0.25" stroke-linecap="round" stroke-linejoin="round"/>
<path d="M1200.19 100.06H1439.81" stroke="black" stroke-width="0.25" stroke-linecap="round" stroke-linejoin="round"/>
<path d="M1200.19 120.034H1439.81" stroke="black" stroke-width="0.25" stroke-linecap="round" stroke-linejoin="round"/>
<path d="M1200.19 140.01H1439.81" stroke="black" stroke-width="0.25" stroke-linecap="round" stroke-linejoin="round"/>
<path d="M1200.19 159.984H1439.81" stroke="black" stroke-width="0.25" stroke-linecap="round" stroke-linejoin="round"/>
<path d="M1200.19 179.959H1439.81" stroke="black" stroke-width="0.25" stroke-linecap="round" stroke-linejoin="round"/>
<path d="M1200.19 199.935H1439.81" stroke="black" stroke-width="0.25" stroke-linecap="round" stroke-linejoin="round"/>
<path d="M1200.19 219.909H1439.81" stroke="black" stroke-width="0.25" stroke-linecap="round" stroke-linejoin="round"/>
<mask id="mask5_17_239" style="mask-type:luminance" maskUnits="userSpaceOnUse" x="1200" y="239" width="240" height="1">
<path fill-rule="evenodd" clip-rule="evenodd" d="M1200.19 239.699H1439.81V239.931H1200.19V239.699Z" fill="white"/>
</mask>
<g mask="url(#mask5_17_239)">
<path d="M1200.19 239.884H1439.81" stroke="black" stroke-width="0.25" stroke-linecap="round" stroke-linejoin="round"/>
</g>
</g>
<defs>
<clipPath id="clip0_17_239">
<rect width="1440" height="240" fill="white"/>
</clipPath>
</defs>
</svg>
