<svg width="600" height="300" viewBox="0 0 600 300" fill="none" xmlns="http://www.w3.org/2000/svg">
<g clip-path="url(#clip0_136_107)">
<g filter="url(#filter0_d_136_107)">
<path d="M307 217C307 217 321 239.246 321 246.986C321 254.726 314.732 261 307 261C299.268 261 293 254.726 293 246.986C293 239.246 307 217 307 217Z" fill="white"/>
<path d="M307 217L310.386 214.869L307 209.49L303.615 214.869L307 217ZM307 217C310.253 214.953 310.38 214.873 310.386 214.87L310.387 214.871C310.387 214.872 310.389 214.874 310.39 214.876C310.392 214.879 310.395 214.884 310.398 214.89C310.406 214.902 310.417 214.92 310.431 214.942C310.459 214.988 310.501 215.053 310.554 215.139C310.66 215.31 310.815 215.559 311.011 215.878C311.402 216.515 311.958 217.431 312.625 218.552C313.957 220.791 315.739 223.868 317.525 227.2C319.305 230.52 321.124 234.158 322.509 237.507C323.821 240.68 325 244.178 325 246.986C325 256.776 317.195 264.747 307.465 264.994L307 265C297.055 265 289 256.931 289 246.986C289 244.178 290.179 240.68 291.491 237.507C292.876 234.158 294.695 230.52 296.475 227.2C298.261 223.868 300.043 220.791 301.375 218.552C302.042 217.43 302.599 216.515 302.99 215.878C303.186 215.559 303.34 215.31 303.446 215.139C303.499 215.053 303.541 214.988 303.569 214.942C303.583 214.92 303.595 214.902 303.603 214.89C303.606 214.884 303.609 214.879 303.611 214.876C303.612 214.874 303.613 214.872 303.613 214.871L303.614 214.87C303.615 214.87 303.628 214.878 307 217Z" stroke="#8BFF00" stroke-width="8"/>
</g>
<path d="M307 217C307 217 321 239.246 321 246.986C321 254.726 314.732 261 307 261C299.268 261 293 254.726 293 246.986C293 239.246 307 217 307 217Z" fill="black"/>
<mask id="path-4-outside-1_136_107" maskUnits="userSpaceOnUse" x="289.782" y="223.782" width="25.9185" height="37.4172" fill="black">
<rect fill="white" x="289.782" y="223.782" width="25.9185" height="37.4172"/>
<path d="M296.447 250.118L296.451 250.133C296.474 250.216 296.459 250.163 296.466 250.184L296.501 250.279L296.574 250.465C296.622 250.589 296.671 250.713 296.72 250.836C296.732 250.868 296.741 250.896 296.758 250.93L296.807 251.033C296.841 251.102 296.875 251.171 296.908 251.239C296.977 251.375 297.045 251.51 297.114 251.644C297.256 251.906 297.422 252.14 297.576 252.382C297.739 252.619 297.929 252.841 298.104 253.064C298.188 253.176 298.297 253.277 298.393 253.382C298.493 253.485 298.591 253.588 298.689 253.69C299.504 254.49 300.454 255.131 301.412 255.637C301.656 255.76 301.885 255.887 302.135 255.989C302.382 256.094 302.614 256.203 302.855 256.294C303.101 256.381 303.339 256.465 303.572 256.547C303.629 256.568 303.686 256.588 303.743 256.608C303.803 256.625 303.862 256.642 303.92 256.66C304.038 256.693 304.154 256.725 304.268 256.757C304.718 256.892 305.164 256.985 305.571 257.071C305.772 257.117 305.98 257.143 306.17 257.175C306.362 257.207 306.547 257.233 306.719 257.259C307.429 257.341 307.987 257.387 308.38 257.391C308.574 257.399 308.724 257.401 308.824 257.404C308.924 257.406 308.975 257.407 308.975 257.407C308.975 257.407 308.804 257.345 308.482 257.229C308.402 257.201 308.313 257.169 308.215 257.135C308.165 257.118 308.114 257.1 308.06 257.082C308.008 257.061 307.954 257.04 307.899 257.017C307.787 256.972 307.668 256.924 307.541 256.873C307.414 256.822 307.275 256.774 307.138 256.711C307.002 256.649 306.86 256.582 306.709 256.515C306.559 256.446 306.397 256.383 306.245 256.298C305.939 256.132 305.591 255.976 305.263 255.768C305.18 255.719 305.095 255.669 305.008 255.618C304.964 255.593 304.921 255.568 304.876 255.543C304.835 255.516 304.793 255.488 304.751 255.46C304.584 255.348 304.412 255.234 304.236 255.117C303.905 254.866 303.545 254.619 303.227 254.323C302.565 253.751 301.952 253.08 301.441 252.323C301.38 252.227 301.32 252.13 301.259 252.033C301.199 251.935 301.127 251.843 301.08 251.738C301.027 251.637 300.974 251.535 300.921 251.432C300.894 251.381 300.866 251.33 300.84 251.278C300.81 251.228 300.785 251.176 300.765 251.122C300.721 251.015 300.676 250.908 300.631 250.8L300.562 250.639C300.538 250.585 300.516 250.532 300.502 250.479C300.469 250.374 300.436 250.268 300.403 250.161L300.35 250.004L300.323 249.924C300.314 249.897 300.308 249.862 300.3 249.831C300.27 249.702 300.239 249.574 300.21 249.444L300.164 249.25L300.14 249.153C300.144 249.166 300.127 249.105 300.148 249.18L300.147 249.171L300.146 249.152L300.142 249.115L300.124 248.97L300.117 248.804C300.116 248.748 300.111 248.695 300.112 248.637L300.117 248.457C300.113 248.224 300.148 247.962 300.165 247.711C300.183 247.58 300.2 247.449 300.218 247.317C300.235 247.186 300.248 247.055 300.276 246.919C300.452 245.844 300.717 244.717 301.03 243.582C301.169 243.017 301.351 242.444 301.507 241.876C301.678 241.305 301.849 240.737 302.019 240.173C302.196 239.606 302.372 239.044 302.547 238.489C302.628 238.211 302.723 237.934 302.811 237.66C302.9 237.384 302.986 237.111 303.073 236.841C303.162 236.57 303.236 236.3 303.327 236.034C303.414 235.767 303.5 235.503 303.584 235.242C303.75 234.718 303.911 234.206 304.068 233.708C304.229 233.209 304.381 232.724 304.522 232.254C304.592 232.019 304.661 231.787 304.729 231.56C304.801 231.331 304.875 231.107 304.939 230.887C305.069 230.446 305.201 230.025 305.313 229.623C305.425 229.224 305.532 228.846 305.632 228.49C305.839 227.772 306.007 227.146 306.133 226.628C306.263 226.112 306.352 225.704 306.41 225.427C306.467 225.148 306.493 225 306.493 225C306.493 225 306.383 225.14 306.185 225.405C305.988 225.67 305.703 226.059 305.356 226.555C305.006 227.051 304.596 227.654 304.138 228.348C304.08 228.435 304.022 228.523 303.963 228.612C303.934 228.657 303.905 228.702 303.875 228.747L303.87 228.756C303.86 228.777 303.864 228.767 303.86 228.774L303.85 228.791L303.829 228.825L303.785 228.895C303.67 229.08 303.552 229.27 303.43 229.466C303.187 229.856 302.945 230.269 302.684 230.699C302.553 230.913 302.428 231.133 302.297 231.356C302.17 231.583 302.041 231.814 301.909 232.047C301.647 232.516 301.383 233.002 301.116 233.503C300.979 233.753 300.851 234.006 300.722 234.264C300.592 234.521 300.463 234.781 300.333 235.044C300.072 235.571 299.809 236.109 299.565 236.66C299.318 237.211 299.063 237.769 298.828 238.338C298.598 238.908 298.361 239.484 298.142 240.067C298.037 240.359 297.932 240.652 297.826 240.946C297.722 241.241 297.612 241.535 297.523 241.833C297.336 242.427 297.144 243.023 296.989 243.624C296.662 244.824 296.411 246.033 296.292 247.242C296.273 247.392 296.267 247.545 296.258 247.697C296.249 247.849 296.241 248 296.233 248.151C296.239 248.46 296.229 248.758 296.262 249.071L296.282 249.303C296.291 249.381 296.306 249.461 296.319 249.54L296.36 249.778C296.381 249.86 296.402 249.943 296.422 250.025L296.438 250.087L296.447 250.118Z"/>
</mask>
<path d="M296.447 250.118L296.451 250.133C296.474 250.216 296.459 250.163 296.466 250.184L296.501 250.279L296.574 250.465C296.622 250.589 296.671 250.713 296.72 250.836C296.732 250.868 296.741 250.896 296.758 250.93L296.807 251.033C296.841 251.102 296.875 251.171 296.908 251.239C296.977 251.375 297.045 251.51 297.114 251.644C297.256 251.906 297.422 252.14 297.576 252.382C297.739 252.619 297.929 252.841 298.104 253.064C298.188 253.176 298.297 253.277 298.393 253.382C298.493 253.485 298.591 253.588 298.689 253.69C299.504 254.49 300.454 255.131 301.412 255.637C301.656 255.76 301.885 255.887 302.135 255.989C302.382 256.094 302.614 256.203 302.855 256.294C303.101 256.381 303.339 256.465 303.572 256.547C303.629 256.568 303.686 256.588 303.743 256.608C303.803 256.625 303.862 256.642 303.92 256.66C304.038 256.693 304.154 256.725 304.268 256.757C304.718 256.892 305.164 256.985 305.571 257.071C305.772 257.117 305.98 257.143 306.17 257.175C306.362 257.207 306.547 257.233 306.719 257.259C307.429 257.341 307.987 257.387 308.38 257.391C308.574 257.399 308.724 257.401 308.824 257.404C308.924 257.406 308.975 257.407 308.975 257.407C308.975 257.407 308.804 257.345 308.482 257.229C308.402 257.201 308.313 257.169 308.215 257.135C308.165 257.118 308.114 257.1 308.06 257.082C308.008 257.061 307.954 257.04 307.899 257.017C307.787 256.972 307.668 256.924 307.541 256.873C307.414 256.822 307.275 256.774 307.138 256.711C307.002 256.649 306.86 256.582 306.709 256.515C306.559 256.446 306.397 256.383 306.245 256.298C305.939 256.132 305.591 255.976 305.263 255.768C305.18 255.719 305.095 255.669 305.008 255.618C304.964 255.593 304.921 255.568 304.876 255.543C304.835 255.516 304.793 255.488 304.751 255.46C304.584 255.348 304.412 255.234 304.236 255.117C303.905 254.866 303.545 254.619 303.227 254.323C302.565 253.751 301.952 253.08 301.441 252.323C301.38 252.227 301.32 252.13 301.259 252.033C301.199 251.935 301.127 251.843 301.08 251.738C301.027 251.637 300.974 251.535 300.921 251.432C300.894 251.381 300.866 251.33 300.84 251.278C300.81 251.228 300.785 251.176 300.765 251.122C300.721 251.015 300.676 250.908 300.631 250.8L300.562 250.639C300.538 250.585 300.516 250.532 300.502 250.479C300.469 250.374 300.436 250.268 300.403 250.161L300.35 250.004L300.323 249.924C300.314 249.897 300.308 249.862 300.3 249.831C300.27 249.702 300.239 249.574 300.21 249.444L300.164 249.25L300.14 249.153C300.144 249.166 300.127 249.105 300.148 249.18L300.147 249.171L300.146 249.152L300.142 249.115L300.124 248.97L300.117 248.804C300.116 248.748 300.111 248.695 300.112 248.637L300.117 248.457C300.113 248.224 300.148 247.962 300.165 247.711C300.183 247.58 300.2 247.449 300.218 247.317C300.235 247.186 300.248 247.055 300.276 246.919C300.452 245.844 300.717 244.717 301.03 243.582C301.169 243.017 301.351 242.444 301.507 241.876C301.678 241.305 301.849 240.737 302.019 240.173C302.196 239.606 302.372 239.044 302.547 238.489C302.628 238.211 302.723 237.934 302.811 237.66C302.9 237.384 302.986 237.111 303.073 236.841C303.162 236.57 303.236 236.3 303.327 236.034C303.414 235.767 303.5 235.503 303.584 235.242C303.75 234.718 303.911 234.206 304.068 233.708C304.229 233.209 304.381 232.724 304.522 232.254C304.592 232.019 304.661 231.787 304.729 231.56C304.801 231.331 304.875 231.107 304.939 230.887C305.069 230.446 305.201 230.025 305.313 229.623C305.425 229.224 305.532 228.846 305.632 228.49C305.839 227.772 306.007 227.146 306.133 226.628C306.263 226.112 306.352 225.704 306.41 225.427C306.467 225.148 306.493 225 306.493 225C306.493 225 306.383 225.14 306.185 225.405C305.988 225.67 305.703 226.059 305.356 226.555C305.006 227.051 304.596 227.654 304.138 228.348C304.08 228.435 304.022 228.523 303.963 228.612C303.934 228.657 303.905 228.702 303.875 228.747L303.87 228.756C303.86 228.777 303.864 228.767 303.86 228.774L303.85 228.791L303.829 228.825L303.785 228.895C303.67 229.08 303.552 229.27 303.43 229.466C303.187 229.856 302.945 230.269 302.684 230.699C302.553 230.913 302.428 231.133 302.297 231.356C302.17 231.583 302.041 231.814 301.909 232.047C301.647 232.516 301.383 233.002 301.116 233.503C300.979 233.753 300.851 234.006 300.722 234.264C300.592 234.521 300.463 234.781 300.333 235.044C300.072 235.571 299.809 236.109 299.565 236.66C299.318 237.211 299.063 237.769 298.828 238.338C298.598 238.908 298.361 239.484 298.142 240.067C298.037 240.359 297.932 240.652 297.826 240.946C297.722 241.241 297.612 241.535 297.523 241.833C297.336 242.427 297.144 243.023 296.989 243.624C296.662 244.824 296.411 246.033 296.292 247.242C296.273 247.392 296.267 247.545 296.258 247.697C296.249 247.849 296.241 248 296.233 248.151C296.239 248.46 296.229 248.758 296.262 249.071L296.282 249.303C296.291 249.381 296.306 249.461 296.319 249.54L296.36 249.778C296.381 249.86 296.402 249.943 296.422 250.025L296.438 250.087L296.447 250.118Z" fill="white"/>
<path d="M296.447 250.118L296.451 250.133C296.474 250.216 296.459 250.163 296.466 250.184L296.501 250.279L296.574 250.465C296.622 250.589 296.671 250.713 296.72 250.836C296.732 250.868 296.741 250.896 296.758 250.93L296.807 251.033C296.841 251.102 296.875 251.171 296.908 251.239C296.977 251.375 297.045 251.51 297.114 251.644C297.256 251.906 297.422 252.14 297.576 252.382C297.739 252.619 297.929 252.841 298.104 253.064C298.188 253.176 298.297 253.277 298.393 253.382C298.493 253.485 298.591 253.588 298.689 253.69C299.504 254.49 300.454 255.131 301.412 255.637C301.656 255.76 301.885 255.887 302.135 255.989C302.382 256.094 302.614 256.203 302.855 256.294C303.101 256.381 303.339 256.465 303.572 256.547C303.629 256.568 303.686 256.588 303.743 256.608C303.803 256.625 303.862 256.642 303.92 256.66C304.038 256.693 304.154 256.725 304.268 256.757C304.718 256.892 305.164 256.985 305.571 257.071C305.772 257.117 305.98 257.143 306.17 257.175C306.362 257.207 306.547 257.233 306.719 257.259C307.429 257.341 307.987 257.387 308.38 257.391C308.574 257.399 308.724 257.401 308.824 257.404C308.924 257.406 308.975 257.407 308.975 257.407C308.975 257.407 308.804 257.345 308.482 257.229C308.402 257.201 308.313 257.169 308.215 257.135C308.165 257.118 308.114 257.1 308.06 257.082C308.008 257.061 307.954 257.04 307.899 257.017C307.787 256.972 307.668 256.924 307.541 256.873C307.414 256.822 307.275 256.774 307.138 256.711C307.002 256.649 306.86 256.582 306.709 256.515C306.559 256.446 306.397 256.383 306.245 256.298C305.939 256.132 305.591 255.976 305.263 255.768C305.18 255.719 305.095 255.669 305.008 255.618C304.964 255.593 304.921 255.568 304.876 255.543C304.835 255.516 304.793 255.488 304.751 255.46C304.584 255.348 304.412 255.234 304.236 255.117C303.905 254.866 303.545 254.619 303.227 254.323C302.565 253.751 301.952 253.08 301.441 252.323C301.38 252.227 301.32 252.13 301.259 252.033C301.199 251.935 301.127 251.843 301.08 251.738C301.027 251.637 300.974 251.535 300.921 251.432C300.894 251.381 300.866 251.33 300.84 251.278C300.81 251.228 300.785 251.176 300.765 251.122C300.721 251.015 300.676 250.908 300.631 250.8L300.562 250.639C300.538 250.585 300.516 250.532 300.502 250.479C300.469 250.374 300.436 250.268 300.403 250.161L300.35 250.004L300.323 249.924C300.314 249.897 300.308 249.862 300.3 249.831C300.27 249.702 300.239 249.574 300.21 249.444L300.164 249.25L300.14 249.153C300.144 249.166 300.127 249.105 300.148 249.18L300.147 249.171L300.146 249.152L300.142 249.115L300.124 248.97L300.117 248.804C300.116 248.748 300.111 248.695 300.112 248.637L300.117 248.457C300.113 248.224 300.148 247.962 300.165 247.711C300.183 247.58 300.2 247.449 300.218 247.317C300.235 247.186 300.248 247.055 300.276 246.919C300.452 245.844 300.717 244.717 301.03 243.582C301.169 243.017 301.351 242.444 301.507 241.876C301.678 241.305 301.849 240.737 302.019 240.173C302.196 239.606 302.372 239.044 302.547 238.489C302.628 238.211 302.723 237.934 302.811 237.66C302.9 237.384 302.986 237.111 303.073 236.841C303.162 236.57 303.236 236.3 303.327 236.034C303.414 235.767 303.5 235.503 303.584 235.242C303.75 234.718 303.911 234.206 304.068 233.708C304.229 233.209 304.381 232.724 304.522 232.254C304.592 232.019 304.661 231.787 304.729 231.56C304.801 231.331 304.875 231.107 304.939 230.887C305.069 230.446 305.201 230.025 305.313 229.623C305.425 229.224 305.532 228.846 305.632 228.49C305.839 227.772 306.007 227.146 306.133 226.628C306.263 226.112 306.352 225.704 306.41 225.427C306.467 225.148 306.493 225 306.493 225C306.493 225 306.383 225.14 306.185 225.405C305.988 225.67 305.703 226.059 305.356 226.555C305.006 227.051 304.596 227.654 304.138 228.348C304.08 228.435 304.022 228.523 303.963 228.612C303.934 228.657 303.905 228.702 303.875 228.747L303.87 228.756C303.86 228.777 303.864 228.767 303.86 228.774L303.85 228.791L303.829 228.825L303.785 228.895C303.67 229.08 303.552 229.27 303.43 229.466C303.187 229.856 302.945 230.269 302.684 230.699C302.553 230.913 302.428 231.133 302.297 231.356C302.17 231.583 302.041 231.814 301.909 232.047C301.647 232.516 301.383 233.002 301.116 233.503C300.979 233.753 300.851 234.006 300.722 234.264C300.592 234.521 300.463 234.781 300.333 235.044C300.072 235.571 299.809 236.109 299.565 236.66C299.318 237.211 299.063 237.769 298.828 238.338C298.598 238.908 298.361 239.484 298.142 240.067C298.037 240.359 297.932 240.652 297.826 240.946C297.722 241.241 297.612 241.535 297.523 241.833C297.336 242.427 297.144 243.023 296.989 243.624C296.662 244.824 296.411 246.033 296.292 247.242C296.273 247.392 296.267 247.545 296.258 247.697C296.249 247.849 296.241 248 296.233 248.151C296.239 248.46 296.229 248.758 296.262 249.071L296.282 249.303C296.291 249.381 296.306 249.461 296.319 249.54L296.36 249.778C296.381 249.86 296.402 249.943 296.422 250.025L296.438 250.087L296.447 250.118Z" stroke="black" stroke-width="2" mask="url(#path-4-outside-1_136_107)"/>
</g>
<path d="M93.2936 97.9678C125.431 97.9678 141.5 115.301 141.5 149.968C141.5 184.634 125.431 201.968 93.2936 201.968H53.5V97.9678H93.2936ZM83.0114 177.026H92.7595C105.134 177.026 111.321 169.518 111.321 154.503V145.433C111.321 130.417 105.134 122.91 92.7595 122.91H83.0114V177.026Z" fill="black"/>
<path d="M71.644 105.968C102.449 105.968 117.852 120.645 117.852 150C117.852 179.354 102.449 194.032 71.644 194.032H33.5V105.968H71.644ZM61.788 172.912H71.132C82.9933 172.912 88.924 166.554 88.924 153.84V146.16C88.924 133.445 82.9933 127.088 71.132 127.088H61.788V172.912Z" fill="#8BFF00"/>
<path d="M25.5 97.9678H71.6445V105.968H33.5V194.032H71.6445L73.0771 194.021C102.454 193.577 117.375 179.358 117.841 151.365L117.853 150C117.852 121.104 102.927 106.43 73.0771 105.979L71.6445 105.968V97.9678C88.1865 97.9678 102.078 101.902 111.819 111.185C121.632 120.535 125.852 133.989 125.853 150L125.84 151.494C125.583 166.849 121.325 179.757 111.819 188.815C102.078 198.098 88.1865 202.032 71.6445 202.032H25.5V97.9678ZM80.9248 146.16C80.9248 140.904 79.6874 138.45 78.627 137.313C77.7243 136.346 75.9258 135.236 71.9561 135.102L71.1328 135.088H69.7881V164.912H71.1328V172.912H61.7881V127.088H71.1328C82.9938 127.088 88.9248 133.446 88.9248 146.16V153.84L88.9199 154.432C88.7375 166.752 82.8085 172.912 71.1328 172.912V164.912C75.682 164.912 77.6641 163.72 78.627 162.688C79.6875 161.551 80.9248 159.097 80.9248 153.84V146.16Z" fill="black"/>
<rect x="138" y="98.0645" width="93" height="104" fill="black"/>
<path d="M126 106H202.16V127.12H154.288V139.28H195.248V159.504H154.288V172.944H203.056V194.064H126V106Z" fill="#8BFF00"/>
<path d="M126 106V194.064H203.057V172.944H154.288V159.505H195.248V139.28H154.288V127.12H202.16V106H126ZM210.16 135.12H203.248V164.944H211.057V202.064H118V98H210.16V135.12Z" fill="black"/>
<path d="M254.842 202.06L216.176 98.0005H253.574L275.442 167.575H276.076L298.103 98.0005H333.916L295.409 202.06H254.842Z" fill="black"/>
<path d="M242.408 194.064L211.176 106H241.384L259.048 164.88H259.56L277.352 106H306.28L275.176 194.064H242.408Z" fill="#8BFF00"/>
<path d="M247.485 98L259.479 137.981L271.562 98H317.739L280.984 202.064H236.906L200 98H247.485ZM211.325 106L242.558 194.064H275.325L306.43 106H277.501L259.709 164.881H259.197L241.533 106H211.325Z" fill="black"/>
<path d="M323 98H367V167.702L323 202V98Z" fill="black"/>
<path d="M307 98H351V167.702L307 202V98Z" fill="#8BFF00"/>
<path d="M351 98V167.702L307 202V98H351ZM315 185.62L343 163.795V106H315V185.62Z" fill="black"/>
<path d="M433.968 202.028L390.226 151.511V202.028H359.5V97.9682H388.712L432.455 149.242V97.9682H463.18V202.028H433.968Z" fill="black"/>
<path d="M414.476 194.032L377.484 151.28V194.032H351.5V105.968H376.204L413.196 149.36V105.968H439.18V194.032H414.476Z" fill="#8BFF00"/>
<path d="M413.196 105.968V149.36L376.204 105.968H351.5V194.032H377.484V151.28L414.477 194.032H439.181V105.968H413.196ZM447.181 202.032H410.819L385.484 172.752V202.032H343.5V97.9678H379.896L405.196 127.645V97.9678H447.181V202.032Z" fill="black"/>
<path d="M530.261 98.0005H574.513L534.621 140.804L575.32 202.06H533.168L510.073 163.945L490.693 178.768V202.06H455V98.0005H490.693V142.468L530.261 98.0005Z" fill="black"/>
<path d="M506.648 106H541.72L510.104 142.224L542.36 194.064H508.952L490.648 161.808L475.288 174.352V194.064H447V106H475.288V143.632L506.648 106Z" fill="#8BFF00"/>
<path d="M447 106V194.064H475.288V174.353L490.648 161.809L508.952 194.064H542.36L510.104 142.225L541.721 106H506.648L475.288 143.633V106H447ZM483.288 121.536L502.901 98H559.321L520.024 143.024L556.761 202.064H504.294L488.367 173.999L483.288 178.147V202.064H439V98H483.288V121.536Z" fill="black"/>
<defs>
<filter id="filter0_d_136_107" x="285" y="201.98" width="60" height="67.0196" filterUnits="userSpaceOnUse" color-interpolation-filters="sRGB">
<feFlood flood-opacity="0" result="BackgroundImageFix"/>
<feColorMatrix in="SourceAlpha" type="matrix" values="0 0 0 0 0 0 0 0 0 0 0 0 0 0 0 0 0 0 127 0" result="hardAlpha"/>
<feOffset dx="16"/>
<feComposite in2="hardAlpha" operator="out"/>
<feColorMatrix type="matrix" values="0 0 0 0 0 0 0 0 0 0 0 0 0 0 0 0 0 0 1 0"/>
<feBlend mode="normal" in2="BackgroundImageFix" result="effect1_dropShadow_136_107"/>
<feBlend mode="normal" in="SourceGraphic" in2="effect1_dropShadow_136_107" result="shape"/>
</filter>
<clipPath id="clip0_136_107">
<rect width="600" height="70" fill="white" transform="translate(0 202)"/>
</clipPath>
</defs>
</svg>
