<svg width="80" height="80" viewBox="0 0 80 80" fill="none" xmlns="http://www.w3.org/2000/svg">
<path d="M41 22L44.3857 19.8691L41 14.4902L37.6152 19.8691L41 22ZM41 22C44.2527 19.953 44.3805 19.8729 44.3857 19.8701L44.3867 19.8711C44.3874 19.8721 44.3886 19.8743 44.3896 19.876C44.3918 19.8793 44.3948 19.8838 44.3984 19.8896C44.4061 19.9018 44.4165 19.9198 44.4307 19.9424C44.459 19.9876 44.5006 20.0532 44.5537 20.1387C44.6601 20.3097 44.815 20.5592 45.0107 20.8779C45.402 21.5151 45.9581 22.4306 46.625 23.5518C47.9572 25.7913 49.7391 28.8679 51.5254 32.2002C53.3051 35.5201 55.1241 39.1582 56.5088 42.5068C57.8209 45.6799 59 49.1784 59 51.9863C58.9998 61.7759 51.1948 69.7474 41.4648 69.9941L41 70C31.0554 69.9999 23.0002 61.9313 23 51.9863C23 49.1784 24.1791 45.6799 25.4912 42.5068C26.8759 39.1582 28.6949 35.5201 30.4746 32.2002C32.261 28.8679 34.0428 25.7914 35.375 23.5518C36.042 22.4304 36.5989 21.5152 36.9902 20.8779C37.1859 20.5593 37.3399 20.3097 37.4463 20.1387C37.4994 20.0533 37.541 19.9876 37.5693 19.9424C37.5835 19.9198 37.5949 19.9018 37.6025 19.8896C37.6062 19.8838 37.6092 19.8793 37.6113 19.876C37.6124 19.8743 37.6126 19.8721 37.6133 19.8711L37.6143 19.8701C37.6146 19.8697 37.628 19.8779 41 22Z" fill="white" stroke="#8BFF00" stroke-width="8"/>
<path d="M41.0002 22C41.0002 22 55 44.2456 55 51.9859C55 59.7257 48.7323 65.9999 41.0002 66C33.2682 66 27 59.7257 27 51.9859C27 44.2456 41.0002 22 41.0002 22Z" fill="black"/>
<mask id="path-3-outside-1_31_27" maskUnits="userSpaceOnUse" x="23.782" y="28.782" width="25.9185" height="37.4172" fill="black">
<rect fill="white" x="23.782" y="28.782" width="25.9185" height="37.4172"/>
<path d="M30.4466 55.1175L30.4506 55.133C30.4737 55.2159 30.4595 55.1628 30.4655 55.1842L30.5013 55.2785L30.5745 55.4649C30.6224 55.5893 30.6713 55.7129 30.7196 55.8362C30.7324 55.8679 30.7414 55.8961 30.7575 55.9304L30.8074 56.0335C30.8405 56.1024 30.8747 56.1709 30.9083 56.2391C30.9769 56.3748 31.0454 56.51 31.1135 56.6445C31.256 56.9055 31.4216 57.1398 31.5764 57.382C31.7386 57.6188 31.9285 57.8406 32.1039 58.0636C32.188 58.1764 32.2968 58.2774 32.3926 58.3822C32.4927 58.4853 32.5914 58.588 32.6895 58.69C33.5036 59.4904 34.4537 60.1313 35.4118 60.6367C35.6559 60.7603 35.8855 60.8866 36.1355 60.989C36.3823 61.0938 36.6136 61.2027 36.8552 61.2943C37.1006 61.3808 37.3392 61.4652 37.5715 61.547C37.6286 61.5678 37.6862 61.5878 37.743 61.6078C37.8027 61.6251 37.8623 61.6421 37.9204 61.6595C38.0382 61.6927 38.1542 61.7253 38.2679 61.7575C38.718 61.8918 39.1643 61.9847 39.5711 62.0707C39.772 62.117 39.9797 62.143 40.1701 62.175C40.3617 62.2068 40.5465 62.2327 40.7194 62.2589C41.4294 62.3412 41.9869 62.3866 42.3803 62.3914C42.5742 62.3992 42.7242 62.4008 42.8235 62.4036C42.9237 62.4056 42.9751 62.4066 42.9751 62.4066C42.9751 62.4066 42.8037 62.3451 42.4819 62.2288C42.4017 62.2008 42.3128 62.1693 42.2145 62.1348C42.1648 62.1181 42.1141 62.1004 42.0599 62.0821C42.0083 62.0612 41.9544 62.0397 41.8991 62.0172C41.7873 61.9724 41.6679 61.9243 41.5408 61.8728C41.4138 61.8216 41.2747 61.7742 41.1383 61.7113C41.0015 61.6488 40.8595 61.5818 40.7086 61.5151C40.5594 61.4463 40.3969 61.3834 40.2446 61.2982C39.9389 61.1322 39.5907 60.976 39.2632 60.7683C39.1799 60.7188 39.0948 60.6689 39.0082 60.6181C38.9644 60.5935 38.9208 60.5683 38.8762 60.5431C38.835 60.5156 38.7931 60.4877 38.7505 60.4597C38.5841 60.3484 38.4119 60.2344 38.2358 60.1166C37.9055 59.8663 37.5446 59.619 37.2274 59.3226C36.5649 58.7513 35.9519 58.0799 35.4409 57.3229C35.3803 57.2274 35.3199 57.1303 35.2585 57.0332C35.1991 56.9351 35.1274 56.8427 35.0801 56.7382C35.0272 56.6371 34.9739 56.5346 34.9209 56.4321C34.8939 56.3811 34.8659 56.3298 34.8396 56.2784C34.8101 56.228 34.7848 56.176 34.7646 56.1218C34.7206 56.0152 34.6763 55.9077 34.6314 55.7999L34.5621 55.6389C34.538 55.5853 34.5156 55.5317 34.502 55.4791C34.4691 55.3736 34.4362 55.2677 34.4026 55.1614L34.3499 55.0036L34.3231 54.9243C34.3144 54.8972 34.3082 54.8617 34.3002 54.8306C34.2699 54.7022 34.2395 54.5736 34.2096 54.4441L34.164 54.2499L34.1402 54.1527C34.1436 54.166 34.1271 54.1047 34.1482 54.1796L34.1469 54.1707L34.1457 54.1522L34.1419 54.1154L34.1237 53.9697L34.1174 53.804C34.116 53.7479 34.1115 53.6947 34.1119 53.6368L34.1167 53.4569C34.113 53.2239 34.1483 52.9615 34.1652 52.711C34.1826 52.58 34.2 52.4489 34.2178 52.3171C34.2352 52.1856 34.2483 52.0554 34.2761 51.9187C34.4518 50.8445 34.7172 49.7172 35.0295 48.582C35.1685 48.0168 35.3508 47.4438 35.5067 46.8758C35.6783 46.3052 35.8488 45.7368 36.0186 45.1727C36.196 44.6063 36.372 44.0444 36.547 43.489C36.628 43.2115 36.7234 42.9344 36.8114 42.6597C36.8998 42.3845 36.9865 42.1114 37.0727 41.8408C37.1616 41.5696 37.2363 41.3004 37.3275 41.0341C37.4141 40.7675 37.4996 40.5027 37.5842 40.242C37.7498 39.7184 37.9109 39.2063 38.0681 38.7077C38.2289 38.2092 38.3814 37.7243 38.5221 37.2541C38.5918 37.0191 38.6612 36.7872 38.7295 36.5597C38.801 36.3313 38.8752 36.107 38.9391 35.8868C39.0686 35.4461 39.2012 35.0248 39.3127 34.6228C39.425 34.2238 39.5319 33.8456 39.6324 33.4899C39.8386 32.7722 40.0065 32.1458 40.1333 31.6281C40.263 31.1117 40.3522 30.7043 40.4097 30.4266C40.4671 30.1484 40.4933 30 40.4933 30C40.4933 30 40.3833 30.1402 40.1855 30.4051C39.9882 30.6702 39.7029 31.0588 39.3561 31.5548C39.0064 32.0506 38.5958 32.6544 38.1377 33.348C38.0803 33.4346 38.0218 33.5228 37.9628 33.6122C37.934 33.657 37.9047 33.7023 37.8752 33.7473L37.87 33.7558C37.8596 33.7774 37.8644 33.7667 37.8603 33.7739L37.8499 33.7907L37.8287 33.8254L37.7852 33.8946C37.67 34.0799 37.5518 34.2704 37.4303 34.4659C37.1867 34.8562 36.9447 35.269 36.6839 35.6989C36.5529 35.9133 36.4275 36.1333 36.2968 36.3564C36.1696 36.5831 36.0406 36.8135 35.9092 37.0474C35.6469 37.5163 35.383 38.0024 35.1163 38.5026C34.9793 38.7527 34.8505 39.0062 34.7223 39.2636C34.5922 39.521 34.4629 39.7812 34.3332 40.0442C34.0724 40.5711 33.8087 41.1087 33.5647 41.6598C33.318 42.2107 33.0631 42.7694 32.8278 43.338C32.5984 43.9078 32.3609 44.4837 32.1419 45.0667C32.0373 45.3589 31.932 45.6521 31.8262 45.9463C31.7222 46.2406 31.6121 46.535 31.5231 46.8329C31.3356 47.4275 31.1437 48.0233 30.989 48.6244C30.6625 49.8237 30.4113 51.0325 30.2923 52.242C30.2727 52.3919 30.2674 52.5454 30.258 52.6968C30.2494 52.8491 30.2411 53.0001 30.2328 53.1511C30.2394 53.4596 30.2294 53.7584 30.2624 54.0714L30.2822 54.3031C30.2915 54.3809 30.3065 54.4614 30.3189 54.5404L30.3597 54.7777C30.3809 54.86 30.4015 54.9428 30.4223 55.0254L30.4382 55.087L30.4466 55.1175Z"/>
</mask>
<path d="M30.4466 55.1175L30.4506 55.133C30.4737 55.2159 30.4595 55.1628 30.4655 55.1842L30.5013 55.2785L30.5745 55.4649C30.6224 55.5893 30.6713 55.7129 30.7196 55.8362C30.7324 55.8679 30.7414 55.8961 30.7575 55.9304L30.8074 56.0335C30.8405 56.1024 30.8747 56.1709 30.9083 56.2391C30.9769 56.3748 31.0454 56.51 31.1135 56.6445C31.256 56.9055 31.4216 57.1398 31.5764 57.382C31.7386 57.6188 31.9285 57.8406 32.1039 58.0636C32.188 58.1764 32.2968 58.2774 32.3926 58.3822C32.4927 58.4853 32.5914 58.588 32.6895 58.69C33.5036 59.4904 34.4537 60.1313 35.4118 60.6367C35.6559 60.7603 35.8855 60.8866 36.1355 60.989C36.3823 61.0938 36.6136 61.2027 36.8552 61.2943C37.1006 61.3808 37.3392 61.4652 37.5715 61.547C37.6286 61.5678 37.6862 61.5878 37.743 61.6078C37.8027 61.6251 37.8623 61.6421 37.9204 61.6595C38.0382 61.6927 38.1542 61.7253 38.2679 61.7575C38.718 61.8918 39.1643 61.9847 39.5711 62.0707C39.772 62.117 39.9797 62.143 40.1701 62.175C40.3617 62.2068 40.5465 62.2327 40.7194 62.2589C41.4294 62.3412 41.9869 62.3866 42.3803 62.3914C42.5742 62.3992 42.7242 62.4008 42.8235 62.4036C42.9237 62.4056 42.9751 62.4066 42.9751 62.4066C42.9751 62.4066 42.8037 62.3451 42.4819 62.2288C42.4017 62.2008 42.3128 62.1693 42.2145 62.1348C42.1648 62.1181 42.1141 62.1004 42.0599 62.0821C42.0083 62.0612 41.9544 62.0397 41.8991 62.0172C41.7873 61.9724 41.6679 61.9243 41.5408 61.8728C41.4138 61.8216 41.2747 61.7742 41.1383 61.7113C41.0015 61.6488 40.8595 61.5818 40.7086 61.5151C40.5594 61.4463 40.3969 61.3834 40.2446 61.2982C39.9389 61.1322 39.5907 60.976 39.2632 60.7683C39.1799 60.7188 39.0948 60.6689 39.0082 60.6181C38.9644 60.5935 38.9208 60.5683 38.8762 60.5431C38.835 60.5156 38.7931 60.4877 38.7505 60.4597C38.5841 60.3484 38.4119 60.2344 38.2358 60.1166C37.9055 59.8663 37.5446 59.619 37.2274 59.3226C36.5649 58.7513 35.9519 58.0799 35.4409 57.3229C35.3803 57.2274 35.3199 57.1303 35.2585 57.0332C35.1991 56.9351 35.1274 56.8427 35.0801 56.7382C35.0272 56.6371 34.9739 56.5346 34.9209 56.4321C34.8939 56.3811 34.8659 56.3298 34.8396 56.2784C34.8101 56.228 34.7848 56.176 34.7646 56.1218C34.7206 56.0152 34.6763 55.9077 34.6314 55.7999L34.5621 55.6389C34.538 55.5853 34.5156 55.5317 34.502 55.4791C34.4691 55.3736 34.4362 55.2677 34.4026 55.1614L34.3499 55.0036L34.3231 54.9243C34.3144 54.8972 34.3082 54.8617 34.3002 54.8306C34.2699 54.7022 34.2395 54.5736 34.2096 54.4441L34.164 54.2499L34.1402 54.1527C34.1436 54.166 34.1271 54.1047 34.1482 54.1796L34.1469 54.1707L34.1457 54.1522L34.1419 54.1154L34.1237 53.9697L34.1174 53.804C34.116 53.7479 34.1115 53.6947 34.1119 53.6368L34.1167 53.4569C34.113 53.2239 34.1483 52.9615 34.1652 52.711C34.1826 52.58 34.2 52.4489 34.2178 52.3171C34.2352 52.1856 34.2483 52.0554 34.2761 51.9187C34.4518 50.8445 34.7172 49.7172 35.0295 48.582C35.1685 48.0168 35.3508 47.4438 35.5067 46.8758C35.6783 46.3052 35.8488 45.7368 36.0186 45.1727C36.196 44.6063 36.372 44.0444 36.547 43.489C36.628 43.2115 36.7234 42.9344 36.8114 42.6597C36.8998 42.3845 36.9865 42.1114 37.0727 41.8408C37.1616 41.5696 37.2363 41.3004 37.3275 41.0341C37.4141 40.7675 37.4996 40.5027 37.5842 40.242C37.7498 39.7184 37.9109 39.2063 38.0681 38.7077C38.2289 38.2092 38.3814 37.7243 38.5221 37.2541C38.5918 37.0191 38.6612 36.7872 38.7295 36.5597C38.801 36.3313 38.8752 36.107 38.9391 35.8868C39.0686 35.4461 39.2012 35.0248 39.3127 34.6228C39.425 34.2238 39.5319 33.8456 39.6324 33.4899C39.8386 32.7722 40.0065 32.1458 40.1333 31.6281C40.263 31.1117 40.3522 30.7043 40.4097 30.4266C40.4671 30.1484 40.4933 30 40.4933 30C40.4933 30 40.3833 30.1402 40.1855 30.4051C39.9882 30.6702 39.7029 31.0588 39.3561 31.5548C39.0064 32.0506 38.5958 32.6544 38.1377 33.348C38.0803 33.4346 38.0218 33.5228 37.9628 33.6122C37.934 33.657 37.9047 33.7023 37.8752 33.7473L37.87 33.7558C37.8596 33.7774 37.8644 33.7667 37.8603 33.7739L37.8499 33.7907L37.8287 33.8254L37.7852 33.8946C37.67 34.0799 37.5518 34.2704 37.4303 34.4659C37.1867 34.8562 36.9447 35.269 36.6839 35.6989C36.5529 35.9133 36.4275 36.1333 36.2968 36.3564C36.1696 36.5831 36.0406 36.8135 35.9092 37.0474C35.6469 37.5163 35.383 38.0024 35.1163 38.5026C34.9793 38.7527 34.8505 39.0062 34.7223 39.2636C34.5922 39.521 34.4629 39.7812 34.3332 40.0442C34.0724 40.5711 33.8087 41.1087 33.5647 41.6598C33.318 42.2107 33.0631 42.7694 32.8278 43.338C32.5984 43.9078 32.3609 44.4837 32.1419 45.0667C32.0373 45.3589 31.932 45.6521 31.8262 45.9463C31.7222 46.2406 31.6121 46.535 31.5231 46.8329C31.3356 47.4275 31.1437 48.0233 30.989 48.6244C30.6625 49.8237 30.4113 51.0325 30.2923 52.242C30.2727 52.3919 30.2674 52.5454 30.258 52.6968C30.2494 52.8491 30.2411 53.0001 30.2328 53.1511C30.2394 53.4596 30.2294 53.7584 30.2624 54.0714L30.2822 54.3031C30.2915 54.3809 30.3065 54.4614 30.3189 54.5404L30.3597 54.7777C30.3809 54.86 30.4015 54.9428 30.4223 55.0254L30.4382 55.087L30.4466 55.1175Z" fill="white"/>
<path d="M30.4466 55.1175L30.4506 55.133C30.4737 55.2159 30.4595 55.1628 30.4655 55.1842L30.5013 55.2785L30.5745 55.4649C30.6224 55.5893 30.6713 55.7129 30.7196 55.8362C30.7324 55.8679 30.7414 55.8961 30.7575 55.9304L30.8074 56.0335C30.8405 56.1024 30.8747 56.1709 30.9083 56.2391C30.9769 56.3748 31.0454 56.51 31.1135 56.6445C31.256 56.9055 31.4216 57.1398 31.5764 57.382C31.7386 57.6188 31.9285 57.8406 32.1039 58.0636C32.188 58.1764 32.2968 58.2774 32.3926 58.3822C32.4927 58.4853 32.5914 58.588 32.6895 58.69C33.5036 59.4904 34.4537 60.1313 35.4118 60.6367C35.6559 60.7603 35.8855 60.8866 36.1355 60.989C36.3823 61.0938 36.6136 61.2027 36.8552 61.2943C37.1006 61.3808 37.3392 61.4652 37.5715 61.547C37.6286 61.5678 37.6862 61.5878 37.743 61.6078C37.8027 61.6251 37.8623 61.6421 37.9204 61.6595C38.0382 61.6927 38.1542 61.7253 38.2679 61.7575C38.718 61.8918 39.1643 61.9847 39.5711 62.0707C39.772 62.117 39.9797 62.143 40.1701 62.175C40.3617 62.2068 40.5465 62.2327 40.7194 62.2589C41.4294 62.3412 41.9869 62.3866 42.3803 62.3914C42.5742 62.3992 42.7242 62.4008 42.8235 62.4036C42.9237 62.4056 42.9751 62.4066 42.9751 62.4066C42.9751 62.4066 42.8037 62.3451 42.4819 62.2288C42.4017 62.2008 42.3128 62.1693 42.2145 62.1348C42.1648 62.1181 42.1141 62.1004 42.0599 62.0821C42.0083 62.0612 41.9544 62.0397 41.8991 62.0172C41.7873 61.9724 41.6679 61.9243 41.5408 61.8728C41.4138 61.8216 41.2747 61.7742 41.1383 61.7113C41.0015 61.6488 40.8595 61.5818 40.7086 61.5151C40.5594 61.4463 40.3969 61.3834 40.2446 61.2982C39.9389 61.1322 39.5907 60.976 39.2632 60.7683C39.1799 60.7188 39.0948 60.6689 39.0082 60.6181C38.9644 60.5935 38.9208 60.5683 38.8762 60.5431C38.835 60.5156 38.7931 60.4877 38.7505 60.4597C38.5841 60.3484 38.4119 60.2344 38.2358 60.1166C37.9055 59.8663 37.5446 59.619 37.2274 59.3226C36.5649 58.7513 35.9519 58.0799 35.4409 57.3229C35.3803 57.2274 35.3199 57.1303 35.2585 57.0332C35.1991 56.9351 35.1274 56.8427 35.0801 56.7382C35.0272 56.6371 34.9739 56.5346 34.9209 56.4321C34.8939 56.3811 34.8659 56.3298 34.8396 56.2784C34.8101 56.228 34.7848 56.176 34.7646 56.1218C34.7206 56.0152 34.6763 55.9077 34.6314 55.7999L34.5621 55.6389C34.538 55.5853 34.5156 55.5317 34.502 55.4791C34.4691 55.3736 34.4362 55.2677 34.4026 55.1614L34.3499 55.0036L34.3231 54.9243C34.3144 54.8972 34.3082 54.8617 34.3002 54.8306C34.2699 54.7022 34.2395 54.5736 34.2096 54.4441L34.164 54.2499L34.1402 54.1527C34.1436 54.166 34.1271 54.1047 34.1482 54.1796L34.1469 54.1707L34.1457 54.1522L34.1419 54.1154L34.1237 53.9697L34.1174 53.804C34.116 53.7479 34.1115 53.6947 34.1119 53.6368L34.1167 53.4569C34.113 53.2239 34.1483 52.9615 34.1652 52.711C34.1826 52.58 34.2 52.4489 34.2178 52.3171C34.2352 52.1856 34.2483 52.0554 34.2761 51.9187C34.4518 50.8445 34.7172 49.7172 35.0295 48.582C35.1685 48.0168 35.3508 47.4438 35.5067 46.8758C35.6783 46.3052 35.8488 45.7368 36.0186 45.1727C36.196 44.6063 36.372 44.0444 36.547 43.489C36.628 43.2115 36.7234 42.9344 36.8114 42.6597C36.8998 42.3845 36.9865 42.1114 37.0727 41.8408C37.1616 41.5696 37.2363 41.3004 37.3275 41.0341C37.4141 40.7675 37.4996 40.5027 37.5842 40.242C37.7498 39.7184 37.9109 39.2063 38.0681 38.7077C38.2289 38.2092 38.3814 37.7243 38.5221 37.2541C38.5918 37.0191 38.6612 36.7872 38.7295 36.5597C38.801 36.3313 38.8752 36.107 38.9391 35.8868C39.0686 35.4461 39.2012 35.0248 39.3127 34.6228C39.425 34.2238 39.5319 33.8456 39.6324 33.4899C39.8386 32.7722 40.0065 32.1458 40.1333 31.6281C40.263 31.1117 40.3522 30.7043 40.4097 30.4266C40.4671 30.1484 40.4933 30 40.4933 30C40.4933 30 40.3833 30.1402 40.1855 30.4051C39.9882 30.6702 39.7029 31.0588 39.3561 31.5548C39.0064 32.0506 38.5958 32.6544 38.1377 33.348C38.0803 33.4346 38.0218 33.5228 37.9628 33.6122C37.934 33.657 37.9047 33.7023 37.8752 33.7473L37.87 33.7558C37.8596 33.7774 37.8644 33.7667 37.8603 33.7739L37.8499 33.7907L37.8287 33.8254L37.7852 33.8946C37.67 34.0799 37.5518 34.2704 37.4303 34.4659C37.1867 34.8562 36.9447 35.269 36.6839 35.6989C36.5529 35.9133 36.4275 36.1333 36.2968 36.3564C36.1696 36.5831 36.0406 36.8135 35.9092 37.0474C35.6469 37.5163 35.383 38.0024 35.1163 38.5026C34.9793 38.7527 34.8505 39.0062 34.7223 39.2636C34.5922 39.521 34.4629 39.7812 34.3332 40.0442C34.0724 40.5711 33.8087 41.1087 33.5647 41.6598C33.318 42.2107 33.0631 42.7694 32.8278 43.338C32.5984 43.9078 32.3609 44.4837 32.1419 45.0667C32.0373 45.3589 31.932 45.6521 31.8262 45.9463C31.7222 46.2406 31.6121 46.535 31.5231 46.8329C31.3356 47.4275 31.1437 48.0233 30.989 48.6244C30.6625 49.8237 30.4113 51.0325 30.2923 52.242C30.2727 52.3919 30.2674 52.5454 30.258 52.6968C30.2494 52.8491 30.2411 53.0001 30.2328 53.1511C30.2394 53.4596 30.2294 53.7584 30.2624 54.0714L30.2822 54.3031C30.2915 54.3809 30.3065 54.4614 30.3189 54.5404L30.3597 54.7777C30.3809 54.86 30.4015 54.9428 30.4223 55.0254L30.4382 55.087L30.4466 55.1175Z" stroke="black" stroke-width="2" mask="url(#path-3-outside-1_31_27)"/>
</svg>
