<svg width="160" height="160" viewBox="0 0 160 160" fill="none" xmlns="http://www.w3.org/2000/svg">
<g clip-path="url(#clip0_144_16)">
<path d="M102.525 45.9688L102.486 47.4521L103.876 46.9316L141.951 32.6582L117.229 66.3965L116.401 67.5273L117.74 67.9424L156.624 80L117.74 92.0576L116.401 92.4727L117.229 93.6035L141.951 127.341L103.876 113.068L102.486 112.548L102.525 114.031L103.63 156.494L80.8379 121.518L80 120.232L79.1621 121.518L56.3701 156.492L57.4746 114.031L57.5137 112.548L56.124 113.068L18.0479 127.341L42.7705 93.6035L43.5986 92.4727L42.2598 92.0576L3.375 80L42.2598 67.9424L43.5986 67.5273L42.7705 66.3965L18.0479 32.6582L56.124 46.9316L57.5137 47.4521L57.4746 45.9688L56.3701 3.50684L79.1621 38.4824L80 39.7676L80.8379 38.4824L103.63 3.50488L102.525 45.9688Z" fill="#8BFF00" stroke="black" stroke-width="2"/>
</g>
<defs>
<clipPath id="clip0_144_16">
<rect width="160" height="160" fill="white"/>
</clipPath>
</defs>
</svg>
